<svg width="260" height="290" viewBox="0 0 260 290" fill="none" xmlns="http://www.w3.org/2000/svg">
<g clip-path="url(#clip0_147_3863)">
<rect width="260" height="290" rx="20" fill="#FCFDFF"/>
<g opacity="0.8" filter="url(#filter0_f_147_3863)">
<rect x="-27" y="163.241" width="133.679" height="133.679" rx="14.5832" transform="rotate(-17.5193 -27 163.241)" fill="#FFF1E5"/>
</g>
<g opacity="0.8" filter="url(#filter1_f_147_3863)">
<rect x="163.412" y="9" width="97.2213" height="97.2213" rx="14.5832" transform="rotate(18.0786 163.412 9)" fill="#FFE0AB" fill-opacity="0.51"/>
</g>
<g filter="url(#filter2_f_147_3863)">
<ellipse cx="113.907" cy="192.59" rx="52.0672" ry="15.1794" fill="#FFEBE7"/>
</g>
<path d="M123.06 167.705C161.9 167.705 193.387 137.827 193.387 100.972C193.387 64.1162 161.9 34.2388 123.06 34.2388C84.2187 34.2388 52.7319 64.1162 52.7319 100.972C52.7319 137.827 84.2187 167.705 123.06 167.705Z" fill="url(#paint0_linear_147_3863)"/>
<path d="M193.141 161.41C193.141 163.091 193.844 164.703 195.097 165.891C196.349 167.08 198.048 167.747 199.819 167.747H221.991C224.176 167.737 226.269 166.917 227.826 165.462C229.383 164.008 230.28 162.035 230.326 159.962C230.372 157.89 229.564 155.882 228.073 154.367C226.582 152.852 224.526 151.949 222.344 151.851C221.268 149.651 219.469 147.842 217.217 146.695C214.965 145.548 212.382 145.125 209.855 145.49C207.328 145.855 204.994 146.987 203.204 148.718C201.413 150.448 200.262 152.683 199.924 155.087H199.824C198.054 155.086 196.356 155.751 195.103 156.937C193.85 158.122 193.144 159.731 193.141 161.41V161.41Z" fill="url(#paint1_linear_147_3863)"/>
<path d="M26.9805 134.069C26.9794 136.099 27.756 138.059 29.1654 139.586C30.5749 141.112 32.5211 142.1 34.6415 142.366C35.0272 142.417 35.4161 142.443 35.8055 142.443H65.1425C65.7818 142.442 66.4199 142.392 67.0506 142.294C69.763 141.865 72.2109 140.496 73.9194 138.452C75.6279 136.407 76.4752 133.834 76.2969 131.23C76.1186 128.627 74.9275 126.179 72.9545 124.361C70.9816 122.544 68.3675 121.487 65.6196 121.395C64.2005 118.477 61.8203 116.075 58.8377 114.552C55.8551 113.029 52.4316 112.467 49.0831 112.951C45.7346 113.434 42.6425 114.937 40.2726 117.234C37.9027 119.53 36.3835 122.495 35.9438 125.682H35.8055C34.6453 125.682 33.4966 125.899 32.425 126.32C31.3533 126.742 30.3799 127.36 29.5602 128.139C28.7405 128.918 28.0908 129.843 27.6481 130.86C27.2055 131.878 26.9786 132.968 26.9805 134.069V134.069Z" fill="url(#paint2_linear_147_3863)"/>
<path d="M165.689 105.356C165.519 104.519 166.138 103.762 166.801 103.995L171.59 105.683C172.25 105.916 172.459 106.958 171.967 107.561L168.406 111.92C167.913 112.523 167.088 112.236 166.918 111.402L165.689 105.356Z" fill="#FFBEBD"/>
<path d="M26.7176 112.072C26.5476 111.235 27.1664 110.478 27.8292 110.711L32.6187 112.4C33.2788 112.632 33.4875 113.674 32.9949 114.278L29.4345 118.636C28.9418 119.239 28.1162 118.952 27.9468 118.119L26.7176 112.072Z" fill="#FFBEBD"/>
<path d="M76.8921 35.35C77.1451 34.0354 79.0267 34.0354 79.2797 35.35L80.1212 39.7229C80.2066 40.1662 80.5306 40.5258 80.9627 40.6566L85.4237 42.0073C86.5749 42.3559 86.5749 43.9858 85.4237 44.3343L80.9627 45.685C80.5306 45.8158 80.2066 46.1754 80.1212 46.6188L79.2797 50.9917C79.0267 52.3062 77.1451 52.3062 76.8921 50.9917L76.0505 46.6188C75.9652 46.1754 75.6412 45.8158 75.209 45.685L70.7481 44.3343C69.5969 43.9858 69.5969 42.3559 70.7481 42.0073L75.209 40.6566C75.6412 40.5258 75.9652 40.1662 76.0505 39.7229L76.8921 35.35Z" fill="#FFBEBD"/>
<path d="M119.388 196.328C119.388 198.336 118.116 199.658 116.887 199.658C115.657 199.658 114.385 198.336 114.385 196.328C114.385 194.319 115.657 192.997 116.887 192.997C118.116 192.997 119.388 194.319 119.388 196.328Z" stroke="#FFBEBD" stroke-width="1.51959"/>
<path d="M171.927 143.21C171.927 145.219 170.656 146.541 169.426 146.541C168.196 146.541 166.925 145.219 166.925 143.21C166.925 141.201 168.196 139.88 169.426 139.88C170.656 139.88 171.927 141.201 171.927 143.21Z" stroke="#FC9999" stroke-width="1.51959"/>
<path d="M220.478 86.5148C220.48 88.5527 219.701 90.5219 218.286 92.0551C216.871 93.5883 214.917 94.581 212.788 94.8479C212.399 94.895 212.007 94.9192 211.615 94.9204H182.149C181.51 94.919 180.871 94.8691 180.241 94.771C177.532 94.3275 175.092 92.9491 173.391 90.901C171.689 88.8529 170.846 86.2799 171.023 83.6773C171.201 81.0747 172.387 78.6264 174.353 76.8037C176.319 74.981 178.926 73.9127 181.672 73.8045C183.095 70.872 185.485 68.4581 188.48 66.9271C191.476 65.396 194.915 64.8309 198.279 65.3168C201.642 65.8027 204.748 67.3133 207.128 69.6208C209.508 71.9283 211.032 74.9076 211.472 78.1091H211.605C212.77 78.1074 213.923 78.3235 214.999 78.7451C216.076 79.1667 217.054 79.7856 217.878 80.5663C218.702 81.347 219.356 82.2742 219.802 83.2949C220.248 84.3156 220.478 85.4098 220.478 86.5148Z" fill="url(#paint3_linear_147_3863)"/>
<path d="M166.862 166.903C167.162 165.662 168.926 165.662 169.226 166.903L170.234 171.078C170.341 171.521 170.687 171.867 171.13 171.974L175.305 172.982C176.546 173.282 176.546 175.046 175.305 175.346L171.13 176.354C170.687 176.461 170.341 176.807 170.234 177.25L169.226 181.425C168.926 182.666 167.162 182.666 166.862 181.425L165.854 177.25C165.747 176.807 165.401 176.461 164.958 176.354L160.783 175.346C159.542 175.046 159.542 173.282 160.783 172.982L164.958 171.974C165.401 171.867 165.747 171.521 165.854 171.078L166.862 166.903Z" fill="#FFBEBD"/>
<path d="M42.3564 236.517H48.2392V237.266H42.3564V236.517ZM45.2978 237.773C46.7079 237.773 47.6774 238.478 47.6774 239.58C47.6774 240.67 46.7079 241.364 45.2978 241.364C43.8656 241.364 42.9072 240.67 42.9072 239.58C42.9072 238.478 43.8656 237.773 45.2978 237.773ZM45.2978 238.489C44.3834 238.489 43.7775 238.908 43.7775 239.58C43.7775 240.23 44.3834 240.659 45.2978 240.659C46.1901 240.659 46.8071 240.23 46.8071 239.58C46.8071 238.908 46.1901 238.489 45.2978 238.489ZM49.1426 235.47H50.0569V241.695H49.1426V235.47ZM49.8036 238.214H51.5332V238.974H49.8036V238.214ZM43.5902 242.235H50.0569V245.429H49.1426V242.984H43.5902V242.235ZM44.8351 235.415H45.7495V236.936H44.8351V235.415ZM54.5508 236.087H55.2779V237.42C55.2779 238.908 54.4186 240.472 52.9534 241.122L52.4577 240.406C53.7687 239.833 54.5508 238.544 54.5508 237.42V236.087ZM54.694 236.087H55.4211V237.42C55.4211 238.522 56.1703 239.646 57.4482 240.141L56.9524 240.835C55.5203 240.263 54.694 238.886 54.694 237.42V236.087ZM59.982 235.481H60.8523V241.618H59.982V235.481ZM58.3956 238.136H60.2794V238.886H58.3956V238.136ZM57.8448 235.669H58.7151V241.298H57.8448V235.669ZM57.5804 241.838C59.6294 241.838 60.9074 242.499 60.9074 243.634C60.9074 244.757 59.6294 245.407 57.5804 245.407C55.5203 245.407 54.2644 244.757 54.2644 243.634C54.2644 242.499 55.5203 241.838 57.5804 241.838ZM57.5804 242.554C56.0821 242.554 55.1567 242.951 55.1567 243.634C55.1567 244.306 56.0821 244.702 57.5804 244.702C59.0786 244.702 59.993 244.306 59.993 243.634C59.993 242.951 59.0786 242.554 57.5804 242.554ZM62.603 239.624H71.6036V240.373H62.603V239.624ZM63.7928 238.081H70.535V238.819H63.7928V238.081ZM63.7928 235.79H70.4248V236.539H64.6962V238.676H63.7928V235.79ZM63.6827 241.232H70.4468V243.579H64.6081V244.834H63.7047V242.896H69.5435V241.948H63.6827V241.232ZM63.7047 244.592H70.7443V245.319H63.7047V244.592ZM75.9652 236.186C77.5186 236.186 78.6312 237.145 78.6312 238.533C78.6312 239.932 77.5186 240.891 75.9652 240.891C74.4119 240.891 73.2882 239.932 73.2882 238.533C73.2882 237.145 74.4119 236.186 75.9652 236.186ZM75.9652 236.98C74.9297 236.98 74.1806 237.608 74.1806 238.533C74.1806 239.458 74.9297 240.097 75.9652 240.097C76.9898 240.097 77.7389 239.458 77.7389 238.533C77.7389 237.608 76.9898 236.98 75.9652 236.98ZM79.9312 235.459H80.8456V245.44H79.9312V235.459ZM72.9137 243.259L72.7815 242.499C74.5992 242.499 77.111 242.488 79.2812 242.146L79.3583 242.818C77.122 243.248 74.6873 243.259 72.9137 243.259ZM88.4991 235.834C89.9864 235.834 91.077 236.737 91.077 238.048C91.077 239.348 89.9864 240.252 88.4991 240.252C87.0229 240.252 85.9323 239.348 85.9323 238.048C85.9323 236.737 87.0229 235.834 88.4991 235.834ZM88.4991 236.583C87.5407 236.583 86.8136 237.189 86.8136 238.048C86.8136 238.908 87.5407 239.502 88.4991 239.502C89.4686 239.502 90.1847 238.908 90.1847 238.048C90.1847 237.189 89.4686 236.583 88.4991 236.583ZM92.9498 235.47H93.8752V240.571H92.9498V235.47ZM87.4305 241.056H93.8752V243.479H88.3449V244.978H87.4526V242.796H92.9718V241.794H87.4305V241.056ZM87.4526 244.57H94.2057V245.297H87.4526V244.57ZM103.095 235.47H104.01V245.429H103.095V235.47ZM100.176 236.539H101.079C101.079 239.425 99.7792 241.948 96.4522 243.579L95.9675 242.84C98.8428 241.452 100.176 239.337 100.176 236.693V236.539ZM96.4192 236.539H100.572V237.288H96.4192V236.539ZM105.97 240.097H115.003V240.791H105.97V240.097ZM107.038 241.596H113.868V243.722H107.975V244.89H107.071V243.094H112.976V242.246H107.038V241.596ZM107.071 244.647H114.188V245.308H107.071V244.647ZM107.115 235.757H113.835V237.828H108.041V238.908H107.137V237.211H112.943V236.407H107.115V235.757ZM107.137 238.687H114.023V239.348H107.137V238.687ZM123.615 236.66H126.446V237.398H123.615V236.66ZM123.615 238.72H126.446V239.447H123.615V238.72ZM121.665 235.801C123.152 235.801 124.232 236.737 124.232 238.081C124.232 239.403 123.152 240.34 121.665 240.34C120.178 240.34 119.098 239.403 119.098 238.081C119.098 236.737 120.178 235.801 121.665 235.801ZM121.665 236.561C120.685 236.561 119.98 237.189 119.98 238.081C119.98 238.963 120.685 239.591 121.665 239.591C122.646 239.591 123.362 238.963 123.362 238.081C123.362 237.189 122.646 236.561 121.665 236.561ZM126.226 235.47H127.14V240.571H126.226V235.47ZM120.729 241.078H127.14V243.479H121.643V244.978H120.751V242.796H126.237V241.805H120.729V241.078ZM120.751 244.57H127.504V245.297H120.751V244.57ZM135.898 235.481H136.812V241.408H135.898V235.481ZM136.537 238.015H138.288V238.786H136.537V238.015ZM130.533 241.904H136.812V245.297H130.533V241.904ZM135.92 242.631H131.436V244.559H135.92V242.631ZM129.519 240.141H130.301C132.108 240.141 133.397 240.097 134.95 239.822L135.027 240.571C133.452 240.835 132.141 240.902 130.301 240.902H129.519V240.141ZM129.497 236.01H133.981V238.742H130.412V240.571H129.519V238.037H133.078V236.759H129.497V236.01ZM145.966 235.47H146.88V245.429H145.966V235.47ZM146.66 239.558H148.511V240.329H146.66V239.558ZM139.169 237.057H145.041V237.806H139.169V237.057ZM142.143 238.632C143.553 238.632 144.567 239.58 144.567 240.924C144.567 242.268 143.553 243.215 142.143 243.215C140.744 243.215 139.72 242.268 139.72 240.924C139.72 239.58 140.744 238.632 142.143 238.632ZM142.143 239.392C141.24 239.392 140.59 240.02 140.59 240.924C140.59 241.816 141.24 242.455 142.143 242.455C143.047 242.455 143.697 241.816 143.697 240.924C143.697 240.02 143.047 239.392 142.143 239.392ZM141.67 235.592H142.584V237.398H141.67V235.592ZM150.306 236.462H156.717V237.222H150.306V236.462ZM149.358 243.281H158.359V244.041H149.358V243.281ZM152.85 239.723H153.765V243.656H152.85V239.723ZM156.376 236.462H157.279V237.453C157.279 238.687 157.279 240.053 156.916 242.069L156.001 241.948C156.376 240.042 156.376 238.643 156.376 237.453V236.462ZM162.862 236.242H167.268V236.991H162.862V236.242ZM164.36 238.467H165.263V240.957H164.36V238.467ZM166.905 236.242H167.808V236.77C167.808 237.42 167.808 238.412 167.544 239.723L166.651 239.624C166.905 238.313 166.905 237.409 166.905 236.77V236.242ZM169.163 235.47H170.077V242.973H169.163V235.47ZM169.659 238.709H171.499V239.469H169.659V238.709ZM163.787 244.46H170.397V245.209H163.787V244.46ZM163.787 242.279H164.69V244.691H163.787V242.279ZM162.355 241.386L162.256 240.637C164.029 240.637 166.475 240.593 168.491 240.318L168.557 240.979C166.486 241.342 164.106 241.386 162.355 241.386ZM179.716 235.459H180.63V245.44H179.716V235.459ZM173.04 242.279H173.866C175.53 242.279 177.017 242.213 178.78 241.926L178.879 242.675C177.072 242.973 175.574 243.039 173.866 243.039H173.04V242.279ZM173.018 236.396H177.623V239.954H173.954V242.565H173.04V239.205H176.697V237.145H173.018V236.396ZM189.344 235.47H190.258V245.429H189.344V235.47ZM190.038 239.558H191.888V240.329H190.038V239.558ZM182.546 237.057H188.418V237.806H182.546V237.057ZM185.521 238.632C186.931 238.632 187.945 239.58 187.945 240.924C187.945 242.268 186.931 243.215 185.521 243.215C184.122 243.215 183.097 242.268 183.097 240.924C183.097 239.58 184.122 238.632 185.521 238.632ZM185.521 239.392C184.618 239.392 183.968 240.02 183.968 240.924C183.968 241.816 184.618 242.455 185.521 242.455C186.424 242.455 187.074 241.816 187.074 240.924C187.074 240.02 186.424 239.392 185.521 239.392ZM185.047 235.592H185.962V237.398H185.047V235.592ZM196.658 239.029H198.564V239.789H196.658V239.029ZM194.796 236.407H195.512V238.302C195.512 240.384 194.642 242.4 193.188 243.292L192.615 242.598C193.981 241.794 194.796 240.009 194.796 238.302V236.407ZM194.972 236.407H195.677V238.269C195.677 239.866 196.426 241.563 197.737 242.356L197.209 243.072C195.776 242.19 194.972 240.208 194.972 238.269V236.407ZM200.315 235.47H201.197V245.429H200.315V235.47ZM198.299 235.68H199.158V244.934H198.299V235.68ZM205.073 240.593H205.977V243.579H205.073V240.593ZM208.753 240.593H209.667V243.579H208.753V240.593ZM202.87 243.402H211.893V244.162H202.87V243.402ZM207.365 236.098C209.469 236.098 210.978 237.101 210.978 238.665C210.978 240.219 209.469 241.221 207.365 241.221C205.25 241.221 203.74 240.219 203.74 238.665C203.74 237.101 205.25 236.098 207.365 236.098ZM207.365 236.825C205.768 236.825 204.622 237.553 204.622 238.665C204.622 239.767 205.768 240.494 207.365 240.494C208.962 240.494 210.097 239.767 210.097 238.665C210.097 237.553 208.962 236.825 207.365 236.825ZM213.522 242.19L213.39 236.858H214.58L214.448 242.19H213.522ZM213.985 244.625C213.779 244.625 213.607 244.559 213.467 244.427C213.335 244.287 213.269 244.122 213.269 243.931C213.269 243.733 213.335 243.568 213.467 243.435C213.607 243.296 213.779 243.226 213.985 243.226C214.198 243.226 214.371 243.296 214.503 243.435C214.635 243.568 214.701 243.733 214.701 243.931C214.701 244.122 214.635 244.287 214.503 244.427C214.371 244.559 214.198 244.625 213.985 244.625Z" fill="#9E9E9E"/>
<path d="M108.508 220.36V208.364H112.586C113.98 208.364 115.128 208.616 116.031 209.118C116.945 209.61 117.619 210.307 118.053 211.209C118.498 212.1 118.721 213.151 118.721 214.362C118.721 215.573 118.498 216.63 118.053 217.533C117.619 218.424 116.945 219.121 116.031 219.623C115.128 220.114 113.974 220.36 112.569 220.36H108.508ZM110.821 218.372H112.449C113.432 218.372 114.208 218.212 114.78 217.892C115.351 217.573 115.756 217.116 115.996 216.521C116.236 215.916 116.356 215.196 116.356 214.362C116.356 213.517 116.236 212.797 115.996 212.203C115.756 211.597 115.351 211.135 114.78 210.815C114.208 210.495 113.432 210.335 112.449 210.335H110.821V218.372ZM120.674 220.36V211.775H122.988V220.36H120.674ZM121.84 210.575C121.417 210.575 121.074 210.449 120.812 210.198C120.549 209.947 120.417 209.632 120.417 209.255C120.417 208.878 120.549 208.57 120.812 208.33C121.074 208.09 121.417 207.97 121.84 207.97C122.262 207.97 122.605 208.09 122.868 208.33C123.142 208.57 123.279 208.878 123.279 209.255C123.279 209.632 123.142 209.947 122.868 210.198C122.605 210.449 122.262 210.575 121.84 210.575ZM128.222 220.566C127.502 220.566 126.908 220.452 126.44 220.223C125.971 219.983 125.623 219.669 125.395 219.28C125.166 218.881 125.052 218.446 125.052 217.978C125.052 217.453 125.183 216.99 125.446 216.59C125.72 216.19 126.131 215.876 126.68 215.647C127.228 215.419 127.914 215.305 128.736 215.305H130.878C130.878 214.882 130.821 214.539 130.707 214.277C130.593 214.002 130.41 213.797 130.159 213.66C129.919 213.523 129.604 213.454 129.216 213.454C128.782 213.454 128.411 213.551 128.102 213.745C127.794 213.928 127.605 214.214 127.537 214.602H125.292C125.349 213.985 125.549 213.454 125.892 213.008C126.246 212.551 126.708 212.197 127.28 211.946C127.862 211.695 128.513 211.569 129.233 211.569C130.044 211.569 130.747 211.706 131.341 211.98C131.935 212.243 132.392 212.637 132.712 213.163C133.032 213.677 133.192 214.305 133.192 215.048V220.36H131.238L130.981 219.041C130.855 219.269 130.707 219.475 130.536 219.657C130.364 219.84 130.164 220 129.936 220.137C129.707 220.274 129.45 220.377 129.165 220.446C128.879 220.526 128.565 220.566 128.222 220.566ZM128.771 218.784C129.068 218.784 129.33 218.732 129.559 218.629C129.799 218.515 130.004 218.367 130.176 218.184C130.347 217.99 130.478 217.772 130.57 217.533C130.673 217.281 130.741 217.018 130.776 216.744V216.727H129.01C128.656 216.727 128.365 216.773 128.136 216.864C127.919 216.956 127.759 217.081 127.657 217.241C127.554 217.39 127.502 217.567 127.502 217.772C127.502 217.99 127.554 218.172 127.657 218.321C127.759 218.469 127.908 218.584 128.102 218.664C128.296 218.744 128.519 218.784 128.771 218.784ZM135.333 220.36V211.775H137.39L137.595 213.368C137.812 212.991 138.075 212.671 138.384 212.409C138.692 212.134 139.046 211.929 139.446 211.792C139.846 211.643 140.291 211.569 140.783 211.569V214.002H140.046C139.692 214.002 139.366 214.042 139.069 214.122C138.783 214.202 138.532 214.334 138.315 214.516C138.098 214.699 137.932 214.951 137.818 215.27C137.704 215.579 137.647 215.962 137.647 216.419V220.36H135.333ZM143.375 224.13L145.483 219.4H144.968L141.507 211.775H144.009L146.494 217.293L148.721 211.775H151.189L145.825 224.13H143.375Z" fill="black"/>
<path d="M101.483 69.4231L106.586 75.8406C106.776 76.0794 107.12 76.1795 107.543 76.1189C107.966 76.0582 108.433 75.8419 108.841 75.5173L121.341 65.5786L121.332 65.5676L125.722 62.0775C125.891 61.9428 126.037 61.7849 126.147 61.6189C126.256 61.4528 126.325 61.2843 126.347 61.1292C126.368 60.9742 126.342 60.8379 126.27 60.7332C126.198 60.6286 126.084 60.5592 125.937 60.5316L121.018 59.6109C120.885 59.5852 120.778 59.5248 120.706 59.4346C120.635 59.3444 120.6 59.2268 120.605 59.0912L120.763 53.9856C120.767 53.8375 120.724 53.7113 120.638 53.6191C120.551 53.5269 120.424 53.4716 120.268 53.4586C120.112 53.4456 119.933 53.4752 119.747 53.5446C119.561 53.6141 119.375 53.7211 119.207 53.8555L114.81 57.3645L102.305 67.3065C101.9 67.6302 101.586 68.0343 101.432 68.4308C101.278 68.8273 101.296 69.184 101.483 69.4231V69.4231Z" fill="url(#paint4_linear_147_3863)"/>
<path d="M54.1578 124.685C48.1582 121.329 48.0685 111.726 53.184 109.034L89.5092 91.7126C95.5188 88.2433 105.262 88.2433 111.272 91.7126L181.064 128.303C186.629 131.085 186.369 140.664 180.36 144.133L144.338 163.689C138.328 167.158 128.585 167.158 122.575 163.689L54.1578 124.685Z" fill="#FFCB53"/>
<g filter="url(#filter3_d_147_3863)">
<rect x="0.466345" width="65.4101" height="103.503" rx="12.2953" transform="matrix(0.866043 -0.49997 0.866043 0.49997 43.3359 113.122)" fill="url(#paint5_linear_147_3863)" stroke="url(#paint6_linear_147_3863)" stroke-width="0.538478"/>
</g>
<g filter="url(#filter4_d_147_3863)">
<path d="M56.6636 101.416L83.3352 86.0188C91.9204 81.0626 105.84 81.0626 114.425 86.0188L171.309 118.858L135.31 139.639C131.876 141.622 126.308 141.622 122.874 139.639L56.6636 101.416Z" fill="#FFAA22"/>
</g>
<g filter="url(#filter5_b_147_3863)">
<path d="M53.0396 101.652C47.04 98.2961 46.9503 88.6933 52.0658 86.0009L89.1187 63.8579C95.1283 60.3885 104.872 60.3885 110.882 63.8579L179.455 103.372C185.019 106.154 184.76 115.733 178.751 119.203L140.867 140.912C134.857 144.381 125.113 144.381 119.104 140.912L53.0396 101.652Z" fill="white" fill-opacity="0.5"/>
</g>
<g filter="url(#filter6_b_147_3863)">
<rect x="0.466345" width="65.4101" height="102.282" rx="12.2953" transform="matrix(0.866043 -0.49997 0.866043 0.49997 43.3711 90.147)" fill="white" fill-opacity="0.5" stroke="url(#paint7_linear_147_3863)" stroke-width="0.538478"/>
</g>
<rect x="57.5352" y="93.146" width="5.3079" height="58.7128" rx="2.65395" transform="rotate(-59.462 57.5352 93.146)" fill="#FFAA88"/>
<g clip-path="url(#clip1_147_3863)">
<rect x="171.762" y="22.8113" width="25.3638" height="29.5911" rx="7.99469" transform="rotate(42.7275 171.762 22.8113)" fill="url(#paint8_linear_147_3863)"/>
<g filter="url(#filter7_b_147_3863)">
<mask id="path-25-inside-1_147_3863" fill="white">
<path d="M160.288 35.2321C161.873 33.5171 164.547 33.4109 166.262 34.995L178.683 46.4681C180.398 48.0522 180.505 50.7267 178.92 52.4417L154.695 78.6694C153.655 79.795 152.329 80.6169 150.858 81.0472L143.643 83.1582L132.464 72.8325L133.997 65.4726C134.309 63.9724 135.023 62.5854 136.063 61.4597L160.288 35.2321Z"/>
</mask>
<path d="M160.288 35.2321C161.873 33.5171 164.547 33.4109 166.262 34.995L178.683 46.4681C180.398 48.0522 180.505 50.7267 178.92 52.4417L154.695 78.6694C153.655 79.795 152.329 80.6169 150.858 81.0472L143.643 83.1582L132.464 72.8325L133.997 65.4726C134.309 63.9724 135.023 62.5854 136.063 61.4597L160.288 35.2321Z" fill="#FFE0B5" fill-opacity="0.6"/>
<path d="M166.262 34.995L166.008 35.2701L166.008 35.2701L166.262 34.995ZM160.288 35.2321L160.013 34.978L160.013 34.978L160.288 35.2321ZM178.683 46.4681L178.429 46.7432L178.429 46.7432L178.683 46.4681ZM178.92 52.4417L179.196 52.6958L179.196 52.6958L178.92 52.4417ZM154.695 78.6694L154.42 78.4153L154.42 78.4153L154.695 78.6694ZM150.858 81.0472L150.964 81.4067L150.964 81.4067L150.858 81.0472ZM143.643 83.1582L143.389 83.4333L143.545 83.5772L143.749 83.5177L143.643 83.1582ZM132.464 72.8325L132.098 72.7562L132.055 72.9638L132.21 73.1076L132.464 72.8325ZM133.997 65.4726L133.63 65.3962L133.63 65.3963L133.997 65.4726ZM136.063 61.4597L135.788 61.2056L135.788 61.2056L136.063 61.4597ZM166.516 34.7199C164.649 32.9955 161.738 33.111 160.013 34.978L160.564 35.4862C162.007 33.9231 164.445 33.8264 166.008 35.2701L166.516 34.7199ZM178.937 46.193L166.516 34.7199L166.008 35.2701L178.429 46.7432L178.937 46.193ZM179.196 52.6958C180.92 50.8289 180.804 47.9175 178.937 46.193L178.429 46.7432C179.992 48.187 180.089 50.6245 178.645 52.1876L179.196 52.6958ZM154.97 78.9235L179.196 52.6958L178.645 52.1876L154.42 78.4153L154.97 78.9235ZM150.964 81.4067C152.499 80.9573 153.884 80.099 154.97 78.9235L154.42 78.4153C153.426 79.4911 152.159 80.2766 150.753 80.6878L150.964 81.4067ZM143.749 83.5177L150.964 81.4067L150.753 80.6878L143.538 82.7988L143.749 83.5177ZM143.898 82.8831L132.718 72.5574L132.21 73.1076L143.389 83.4333L143.898 82.8831ZM135.788 61.2056C134.702 62.3811 133.956 63.8296 133.63 65.3962L134.363 65.5489C134.662 64.1152 135.344 62.7896 136.338 61.7138L135.788 61.2056ZM160.013 34.978L135.788 61.2056L136.338 61.7138L160.564 35.4862L160.013 34.978ZM132.831 72.9089L134.363 65.5489L133.63 65.3963L132.098 72.7562L132.831 72.9089Z" fill="url(#paint9_linear_147_3863)" mask="url(#path-25-inside-1_147_3863)"/>
</g>
<g filter="url(#filter8_b_147_3863)">
<rect width="16.9092" height="4.2273" rx="2.11365" transform="matrix(-0.734589 -0.678512 -0.678513 0.734589 175.814 49.5735)" fill="url(#paint10_linear_147_3863)" fill-opacity="0.9"/>
<rect x="-0.211681" y="0.0084002" width="16.6096" height="3.9277" rx="1.96385" transform="matrix(-0.734589 -0.678512 -0.678513 0.734589 175.453 49.4321)" stroke="url(#paint11_linear_147_3863)" stroke-width="0.299598"/>
</g>
<path d="M143.644 83.1585L132.464 72.8328L130.167 83.8629C129.842 85.425 131.299 86.7705 132.83 86.3224L143.644 83.1585Z" fill="url(#paint12_linear_147_3863)"/>
</g>
</g>
<defs>
<filter id="filter0_f_147_3863" x="-31.8611" y="118.139" width="177.442" height="177.442" filterUnits="userSpaceOnUse" color-interpolation-filters="sRGB">
<feFlood flood-opacity="0" result="BackgroundImageFix"/>
<feBlend mode="normal" in="SourceGraphic" in2="BackgroundImageFix" result="shape"/>
<feGaussianBlur stdDeviation="2.43053" result="effect1_foregroundBlur_147_3863"/>
</filter>
<filter id="filter1_f_147_3863" x="128.381" y="4.13893" width="132.314" height="132.314" filterUnits="userSpaceOnUse" color-interpolation-filters="sRGB">
<feFlood flood-opacity="0" result="BackgroundImageFix"/>
<feBlend mode="normal" in="SourceGraphic" in2="BackgroundImageFix" result="shape"/>
<feGaussianBlur stdDeviation="2.43053" result="effect1_foregroundBlur_147_3863"/>
</filter>
<filter id="filter2_f_147_3863" x="48.5136" y="164.085" width="130.786" height="57.0103" filterUnits="userSpaceOnUse" color-interpolation-filters="sRGB">
<feFlood flood-opacity="0" result="BackgroundImageFix"/>
<feBlend mode="normal" in="SourceGraphic" in2="BackgroundImageFix" result="shape"/>
<feGaussianBlur stdDeviation="6.66286" result="effect1_foregroundBlur_147_3863"/>
</filter>
<filter id="filter3_d_147_3863" x="35.288" y="83.5964" width="163.19" height="109.939" filterUnits="userSpaceOnUse" color-interpolation-filters="sRGB">
<feFlood flood-opacity="0" result="BackgroundImageFix"/>
<feColorMatrix in="SourceAlpha" type="matrix" values="0 0 0 0 0 0 0 0 0 0 0 0 0 0 0 0 0 0 127 0" result="hardAlpha"/>
<feOffset dy="17.9493"/>
<feGaussianBlur stdDeviation="7.17971"/>
<feComposite in2="hardAlpha" operator="out"/>
<feColorMatrix type="matrix" values="0 0 0 0 1 0 0 0 0 0.693858 0 0 0 0 0.343982 0 0 0 0.5 0"/>
<feBlend mode="normal" in2="BackgroundImageFix" result="effect1_dropShadow_147_3863"/>
<feBlend mode="normal" in="SourceGraphic" in2="effect1_dropShadow_147_3863" result="shape"/>
</filter>
<filter id="filter4_d_147_3863" x="48.7659" y="80.5068" width="130.44" height="74.6201" filterUnits="userSpaceOnUse" color-interpolation-filters="sRGB">
<feFlood flood-opacity="0" result="BackgroundImageFix"/>
<feColorMatrix in="SourceAlpha" type="matrix" values="0 0 0 0 0 0 0 0 0 0 0 0 0 0 0 0 0 0 127 0" result="hardAlpha"/>
<feOffset dy="6.10275"/>
<feGaussianBlur stdDeviation="3.94884"/>
<feComposite in2="hardAlpha" operator="out"/>
<feColorMatrix type="matrix" values="0 0 0 0 1 0 0 0 0 0.31 0 0 0 0 0.188235 0 0 0 1 0"/>
<feBlend mode="normal" in2="BackgroundImageFix" result="effect1_dropShadow_147_3863"/>
<feBlend mode="normal" in="SourceGraphic" in2="effect1_dropShadow_147_3863" result="shape"/>
</filter>
<filter id="filter5_b_147_3863" x="41.1953" y="54.0761" width="149.435" height="96.617" filterUnits="userSpaceOnUse" color-interpolation-filters="sRGB">
<feFlood flood-opacity="0" result="BackgroundImageFix"/>
<feGaussianBlur in="BackgroundImageFix" stdDeviation="3.58986"/>
<feComposite in2="SourceAlpha" operator="in" result="effect1_backgroundBlur_147_3863"/>
<feBlend mode="normal" in="SourceGraphic" in2="effect1_backgroundBlur_147_3863" result="shape"/>
</filter>
<filter id="filter6_b_147_3863" x="42.5029" y="53.4416" width="147.773" height="91.3792" filterUnits="userSpaceOnUse" color-interpolation-filters="sRGB">
<feFlood flood-opacity="0" result="BackgroundImageFix"/>
<feGaussianBlur in="BackgroundImageFix" stdDeviation="3.58986"/>
<feComposite in2="SourceAlpha" operator="in" result="effect1_backgroundBlur_147_3863"/>
<feBlend mode="normal" in="SourceGraphic" in2="effect1_backgroundBlur_147_3863" result="shape"/>
</filter>
<filter id="filter7_b_147_3863" x="124.47" y="25.8784" width="63.5675" height="65.2745" filterUnits="userSpaceOnUse" color-interpolation-filters="sRGB">
<feFlood flood-opacity="0" result="BackgroundImageFix"/>
<feGaussianBlur in="BackgroundImageFix" stdDeviation="3.99735"/>
<feComposite in2="SourceAlpha" operator="in" result="effect1_backgroundBlur_147_3863"/>
<feBlend mode="normal" in="SourceGraphic" in2="effect1_backgroundBlur_147_3863" result="shape"/>
</filter>
<filter id="filter8_b_147_3863" x="145.409" y="22.9843" width="45.5222" height="44.8108" filterUnits="userSpaceOnUse" color-interpolation-filters="sRGB">
<feFlood flood-opacity="0" result="BackgroundImageFix"/>
<feGaussianBlur in="BackgroundImageFix" stdDeviation="7.99469"/>
<feComposite in2="SourceAlpha" operator="in" result="effect1_backgroundBlur_147_3863"/>
<feBlend mode="normal" in="SourceGraphic" in2="effect1_backgroundBlur_147_3863" result="shape"/>
</filter>
<linearGradient id="paint0_linear_147_3863" x1="122.517" y1="12.5088" x2="123.815" y2="246.866" gradientUnits="userSpaceOnUse">
<stop stop-color="#FFE1E1" stop-opacity="0.45"/>
<stop offset="1" stop-color="#FFE1E0"/>
</linearGradient>
<linearGradient id="paint1_linear_147_3863" x1="223.271" y1="177.402" x2="206.215" y2="144.613" gradientUnits="userSpaceOnUse">
<stop stop-color="#FFBEBD"/>
<stop offset="1" stop-color="#FFF6F5"/>
</linearGradient>
<linearGradient id="paint2_linear_147_3863" x1="66.957" y1="155.235" x2="44.3733" y2="111.764" gradientUnits="userSpaceOnUse">
<stop stop-color="#FFBEBD"/>
<stop offset="1" stop-color="#FFF6F5"/>
</linearGradient>
<linearGradient id="paint3_linear_147_3863" x1="211.088" y1="107.761" x2="188.407" y2="64.1437" gradientUnits="userSpaceOnUse">
<stop stop-color="#FFBEBD"/>
<stop offset="1" stop-color="#FFF6F5"/>
</linearGradient>
<linearGradient id="paint4_linear_147_3863" x1="119.61" y1="50.2696" x2="123.371" y2="70.0622" gradientUnits="userSpaceOnUse">
<stop stop-color="#FF9999"/>
<stop offset="1" stop-color="#FFE7DA"/>
</linearGradient>
<linearGradient id="paint5_linear_147_3863" x1="12.3674" y1="87.0818" x2="7.3755" y2="41.888" gradientUnits="userSpaceOnUse">
<stop stop-color="#FFB66C"/>
<stop offset="1" stop-color="#FFEB7A"/>
</linearGradient>
<linearGradient id="paint6_linear_147_3863" x1="5.71423" y1="42.3197" x2="45.9239" y2="66.2243" gradientUnits="userSpaceOnUse">
<stop stop-color="white" stop-opacity="0.43"/>
<stop offset="0.846595" stop-color="white" stop-opacity="0.44"/>
<stop offset="1" stop-color="white" stop-opacity="0"/>
</linearGradient>
<linearGradient id="paint7_linear_147_3863" x1="7.95965" y1="45.0438" x2="49.6625" y2="70.3554" gradientUnits="userSpaceOnUse">
<stop stop-color="white" stop-opacity="0.09"/>
<stop offset="0.846595" stop-color="white" stop-opacity="0.79"/>
<stop offset="1" stop-color="white" stop-opacity="0.17"/>
</linearGradient>
<linearGradient id="paint8_linear_147_3863" x1="179.078" y1="29.2843" x2="199.101" y2="35.1864" gradientUnits="userSpaceOnUse">
<stop stop-color="#FBB57F"/>
<stop offset="1" stop-color="#E15242"/>
</linearGradient>
<linearGradient id="paint9_linear_147_3863" x1="127.98" y1="34.7286" x2="162.376" y2="81.0951" gradientUnits="userSpaceOnUse">
<stop stop-color="white"/>
<stop offset="0.765625" stop-color="white" stop-opacity="0"/>
</linearGradient>
<linearGradient id="paint10_linear_147_3863" x1="17.2321" y1="2.35711" x2="-7.17432" y2="1.73552" gradientUnits="userSpaceOnUse">
<stop stop-color="#FCFDFE"/>
<stop offset="1" stop-color="#FCFDFE" stop-opacity="0"/>
</linearGradient>
<linearGradient id="paint11_linear_147_3863" x1="16.7239" y1="2.90732" x2="8.45459" y2="4.22729" gradientUnits="userSpaceOnUse">
<stop stop-color="white"/>
<stop offset="1" stop-color="white" stop-opacity="0"/>
</linearGradient>
<linearGradient id="paint12_linear_147_3863" x1="134.103" y1="77.5287" x2="138.34" y2="88.4636" gradientUnits="userSpaceOnUse">
<stop stop-color="#FBB57F"/>
<stop offset="1" stop-color="#E15242"/>
</linearGradient>
<clipPath id="clip0_147_3863">
<rect width="260" height="290" rx="20" fill="white"/>
</clipPath>
<clipPath id="clip1_147_3863">
<rect width="97.9033" height="74.066" fill="white" transform="translate(111 14.1472)"/>
</clipPath>
</defs>
</svg>
