<svg width="479" height="324" viewBox="0 0 479 324" fill="none" xmlns="http://www.w3.org/2000/svg">
<rect x="622.327" y="-191.743" width="528.127" height="436.978" rx="15" transform="rotate(107.618 622.327 -191.743)" fill="#CECEE5"/>
<rect x="584.533" y="-175.965" width="528.127" height="506.775" rx="15" transform="rotate(108.957 584.533 -175.965)" fill="#171861"/>
<path d="M204.407 163.885C205.159 165.473 205.494 166.184 205.494 166.894C205.494 167.604 204.951 167.98 204.449 167.98C203.906 167.98 203.488 167.604 202.903 166.978C199.978 163.885 198.306 162.047 195.005 162.047H191.913C189.322 162.047 188.946 162.632 188.946 164.094V171.95C188.946 172.661 189.196 172.953 190.157 172.953H194.754C197.345 172.953 197.22 169.777 198.766 169.777C199.393 169.777 199.852 170.153 199.852 171.156C199.852 172.159 199.727 173.246 199.727 174.291C199.727 175.377 199.852 176.547 199.852 177.466C199.852 178.511 199.393 178.887 198.766 178.887C197.22 178.887 197.345 175.67 194.754 175.67H190.157C189.196 175.67 188.946 175.962 188.946 176.672V184.487C188.946 187.37 192.205 186.409 192.205 188.122C192.205 188.624 191.829 189.125 190.951 189.125C189.823 189.125 188.361 189 186.229 189C184.224 189 183.012 189.125 182.009 189.125C181.089 189.125 180.755 188.624 180.755 188.122C180.755 186.409 183.43 187.37 183.43 184.487V163.843C183.43 160.96 180.755 161.921 180.755 160.25C180.755 159.665 181.089 159.205 182.092 159.205C182.886 159.205 184.265 159.33 186.146 159.33H198.181C199.643 159.33 199.769 158.411 200.772 158.411C201.566 158.411 202.109 158.954 202.819 160.5L204.407 163.885ZM208.242 189.125C207.364 189.125 207.03 188.624 207.03 188.122C207.03 186.493 209.579 187.537 209.579 184.32V164.052C209.579 161.462 206.696 162.757 206.696 161.002C206.696 160.208 207.615 159.706 210.164 158.495C212.588 157.366 213.089 157.241 213.507 157.241C214.343 157.241 214.594 157.951 214.594 158.996V184.32C214.594 187.537 217.185 186.493 217.185 188.122C217.185 188.582 216.809 189.125 216.015 189.125C215.053 189.125 213.883 189 212.087 189C210.29 189 209.161 189.125 208.242 189.125ZM241.588 183.066C241.588 185.657 244.931 185.197 244.931 186.66C244.931 187.621 244.053 188.039 240.961 188.707C238.872 189.209 238.119 189.334 237.66 189.334C236.824 189.334 236.573 188.54 236.573 187.788V185.448C235.236 187.663 232.938 189.501 229.427 189.501C224.872 189.501 222.323 186.493 222.323 181.436V174.583C222.323 171.992 219.106 172.87 219.106 171.282C219.106 170.404 219.983 169.945 222.825 168.942C225.29 168.064 225.834 167.98 226.21 167.98C227.213 167.98 227.338 168.9 227.338 169.736V180.266C227.338 183.651 228.383 185.615 231.433 185.615C233.982 185.615 236.573 183.776 236.573 179.598V174.583C236.573 171.992 232.979 172.953 232.979 171.282C232.979 170.404 233.899 169.986 237.075 168.9C239.415 168.106 240.167 167.98 240.501 167.98C241.462 167.98 241.588 168.9 241.588 169.736V183.066ZM267.101 183.275C267.686 183.275 268.062 183.818 268.062 184.32C268.062 184.612 267.937 184.947 267.644 185.364C266.181 187.537 262.462 189.794 258.116 189.794C252.015 189.794 247.21 185.657 247.21 178.762C247.21 171.992 252.308 167.479 258.158 167.479C263.674 167.479 267.226 171.574 267.226 175.67C267.226 176.714 266.892 176.965 266.181 177.174L253.185 181.102C254.439 184.111 256.988 186.326 260.248 186.326C262.504 186.326 264.426 185.364 265.889 183.985C266.432 183.484 266.725 183.275 267.101 183.275ZM257.448 170.279C254.523 170.279 252.35 172.828 252.35 176.84C252.35 177.466 252.391 178.051 252.475 178.637L260.958 175.962C261.668 175.753 261.919 175.502 261.919 174.75C261.919 172.744 260.08 170.279 257.448 170.279ZM293.085 183.86C293.586 187.705 295.968 186.451 295.968 188.122C295.968 188.749 295.425 189.125 294.673 189.125C293.586 189.125 292.709 189 290.787 189C288.781 189 287.987 189.125 286.859 189.125C285.939 189.125 285.479 188.666 285.479 188.081C285.479 186.576 288.112 187.37 288.112 184.947C288.112 184.57 288.029 183.985 287.945 183.359L287.067 177.132C286.691 174.625 285.814 171.783 283.014 171.783C280.841 171.783 278.459 173.497 278.459 177.717V184.32C278.459 187.537 281.05 186.493 281.05 188.122C281.05 188.582 280.674 189.125 279.88 189.125C278.919 189.125 277.749 189 275.952 189C274.155 189 273.027 189.125 272.065 189.125C271.23 189.125 270.895 188.624 270.895 188.122C270.895 186.493 273.444 187.537 273.444 184.32V174.792C273.444 172.159 270.561 173.455 270.561 171.7C270.561 170.947 271.439 170.404 274.03 169.234C276.453 168.106 276.955 167.98 277.331 167.98C278.167 167.98 278.459 168.649 278.459 169.694V171.909C279.796 169.736 282.053 167.813 285.271 167.813C289.909 167.813 291.497 172.118 291.998 176.046L293.085 183.86ZM312.212 184.194C312.839 184.194 313.215 184.696 313.215 185.239C313.215 185.824 312.839 186.493 312.254 187.078C310.791 188.582 308.702 189.501 306.111 189.501C302.726 189.501 300.261 187.579 300.261 185.281C300.261 184.403 300.386 181.186 300.386 178.302V170.947H297.879C297.085 170.947 296.542 170.53 296.542 169.861C296.542 169.151 297.001 168.774 297.753 168.398C300.386 167.145 301.598 165.724 302.768 162.381C303.437 161.085 303.771 160.5 304.481 160.5C305.025 160.5 305.401 160.876 305.401 161.796V168.315H311.878C312.463 168.315 312.755 168.566 312.755 169.109C312.755 169.401 312.672 169.861 312.63 170.112C312.547 170.697 312.254 170.947 311.711 170.947H305.401V182.23C305.401 185.364 306.529 186.242 308.075 186.242C309.454 186.242 310.29 185.49 311.168 184.779C311.418 184.529 311.794 184.194 312.212 184.194Z" fill="white"/>
</svg>
