<svg width="279" height="225" viewBox="0 0 279 225" fill="none" xmlns="http://www.w3.org/2000/svg">
<path d="M182.892 197.792C191.091 200.888 201.318 202.831 214.107 202.831C226.875 202.831 237.102 200.909 245.279 197.814C278.116 185.387 278.116 154.258 278.116 154.258C278.116 139.804 266.395 128.104 251.962 128.104H176.209C161.755 128.104 150.055 139.804 150.055 154.258C150.055 154.258 150.055 185.366 182.892 197.814" fill="url(#paint0_linear_987_513)"/>
<path d="M182.892 197.792C191.091 200.888 201.318 202.831 214.107 202.831C226.875 202.831 237.102 200.909 245.279 197.814C278.116 185.387 278.116 154.258 278.116 154.258C278.116 139.804 266.395 128.104 251.962 128.104H176.209C161.755 128.104 150.055 139.804 150.055 154.258C150.055 154.258 150.055 185.366 182.892 197.814" fill="url(#paint1_radial_987_513)" fill-opacity="0.5"/>
<path d="M171.407 160.13C171.407 151.636 168.033 143.49 162.027 137.484C156.021 131.478 147.875 128.104 139.381 128.104H32.6276C24.1338 128.104 15.9878 131.478 9.98178 137.484C3.97573 143.49 0.601563 151.636 0.601562 160.13V161.731C0.601562 161.731 0.601562 224.182 86.0044 224.182C167.393 224.182 171.215 167.474 171.407 162.137V160.13Z" fill="url(#paint2_linear_987_513)"/>
<path d="M171.407 160.13C171.407 151.636 168.033 143.49 162.027 137.484C156.021 131.478 147.875 128.104 139.381 128.104H32.6276C24.1338 128.104 15.9878 131.478 9.98178 137.484C3.97573 143.49 0.601563 151.636 0.601562 160.13V161.731C0.601562 161.731 0.601562 224.182 86.0044 224.182C167.393 224.182 171.215 167.474 171.407 162.137V160.13Z" fill="url(#paint3_linear_987_513)"/>
<path d="M214.108 106.753C225.433 106.753 236.294 102.255 244.302 94.2464C252.31 86.2384 256.809 75.3771 256.809 64.052C256.809 52.7269 252.31 41.8656 244.302 33.8575C236.294 25.8495 225.433 21.3506 214.108 21.3506C202.783 21.3506 191.921 25.8495 183.913 33.8575C175.905 41.8656 171.406 52.7269 171.406 64.052C171.406 75.3771 175.905 86.2384 183.913 94.2464C191.921 102.255 202.783 106.753 214.108 106.753Z" fill="url(#paint4_linear_987_513)"/>
<path d="M139.386 53.3768C139.386 67.5331 133.763 81.1097 123.753 91.1198C113.743 101.13 100.166 106.754 86.0096 106.754C71.8532 106.754 58.2766 101.13 48.2665 91.1198C38.2564 81.1097 32.6328 67.5331 32.6328 53.3768C32.6328 39.2204 38.2564 25.6438 48.2665 15.6337C58.2766 5.62361 71.8532 0 86.0096 0C100.166 0 113.743 5.62361 123.753 15.6337C133.763 25.6438 139.386 39.2204 139.386 53.3768Z" fill="url(#paint5_linear_987_513)"/>
<defs>
<linearGradient id="paint0_linear_987_513" x1="180.501" y1="138.032" x2="207.808" y2="212.716" gradientUnits="userSpaceOnUse">
<stop offset="0.125" stop-color="#9C6CFE"/>
<stop offset="1" stop-color="#7A41DC"/>
</linearGradient>
<radialGradient id="paint1_radial_987_513" cx="0" cy="0" r="1" gradientUnits="userSpaceOnUse" gradientTransform="translate(133.828 165.467) rotate(-7.36814) scale(84.9772 88.0534)">
<stop offset="0.392" stop-color="#3B148A"/>
<stop offset="1" stop-color="#3B148A" stop-opacity="0"/>
</radialGradient>
<linearGradient id="paint2_linear_987_513" x1="41.2106" y1="140.871" x2="75.329" y2="237.718" gradientUnits="userSpaceOnUse">
<stop offset="0.07" stop-color="#BD96FF"/>
<stop offset="0.935" stop-color="#9C6CFE"/>
</linearGradient>
<linearGradient id="paint3_linear_987_513" x1="86.0044" y1="116.66" x2="134.043" y2="276.256" gradientUnits="userSpaceOnUse">
<stop stop-color="#885EDB" stop-opacity="0"/>
<stop offset="0.735" stop-color="#413C63" stop-opacity="0.52"/>
</linearGradient>
<linearGradient id="paint4_linear_987_513" x1="191.711" y1="32.7092" x2="235.245" y2="102.206" gradientUnits="userSpaceOnUse">
<stop offset="0.125" stop-color="#9C6CFE"/>
<stop offset="1" stop-color="#7A41DC"/>
</linearGradient>
<linearGradient id="paint5_linear_987_513" x1="58.0188" y1="14.1982" x2="112.42" y2="101.074" gradientUnits="userSpaceOnUse">
<stop offset="0.125" stop-color="#BD96FF"/>
<stop offset="1" stop-color="#9C6CFE"/>
</linearGradient>
</defs>
</svg>
