<svg width="388" height="394" viewBox="0 0 388 394" fill="none" xmlns="http://www.w3.org/2000/svg">
<path d="M206.769 0.410472C176.849 -1.54267 146.885 3.49297 119.242 15.12C91.5537 26.7513 66.9489 44.6753 47.3751 67.4735C27.733 90.3147 13.6213 117.387 6.1388 146.582C-1.34374 175.777 -1.99521 206.307 4.2351 235.796C10.4172 265.276 23.3243 292.925 41.9478 316.583C60.5265 340.203 84.3244 359.186 111.47 372.04C138.57 384.885 168.285 391.237 198.262 390.593C228.238 389.949 257.653 382.326 284.178 368.329C285.028 367.895 285.978 367.693 286.931 367.745C287.885 367.797 288.807 368.101 289.605 368.625C314.794 385.514 344.506 394.358 374.82 393.989C375.536 393.993 376.246 393.855 376.908 393.583C377.57 393.311 378.172 392.909 378.679 392.402C379.185 391.895 379.586 391.293 379.858 390.629C380.13 389.966 380.268 389.255 380.263 388.539V322.247C380.271 320.952 379.821 319.696 378.993 318.702C378.165 317.707 377.012 317.038 375.738 316.813C369.501 315.818 363.411 314.059 357.603 311.576C356.52 311.09 355.627 310.261 355.062 309.217C354.496 308.173 354.288 306.971 354.471 305.797C354.566 305.014 354.847 304.266 355.291 303.614C374.231 275.072 385.366 242.057 387.587 207.862C389.808 173.667 383.037 139.487 367.949 108.729C352.901 78.018 330.043 51.8142 301.673 32.7517C273.371 13.7315 240.552 2.535 206.539 0.295554L206.769 0.410472ZM76.6435 195.328C76.6259 171.943 83.4988 149.072 96.4016 129.579C109.29 110.15 127.632 94.9729 149.117 85.9589C170.593 76.9647 194.261 74.5942 217.09 79.151C239.919 83.7078 260.87 94.9844 277.259 111.536C293.703 128.135 304.893 149.221 309.428 172.156C313.964 195.09 311.642 218.854 302.756 240.475C293.867 262.07 278.787 280.545 259.419 293.567C236.823 308.73 209.664 315.554 182.595 312.871C155.526 310.187 130.231 298.163 111.044 278.857C88.9933 256.653 76.5992 226.624 76.5615 195.312L76.6435 195.328Z" fill="white"/>
</svg>
