<svg width="260" height="290" viewBox="0 0 260 290" fill="none" xmlns="http://www.w3.org/2000/svg">
<g clip-path="url(#clip0_147_4012)">
<rect width="260" height="290" rx="20" fill="#FCFDFF"/>
<g filter="url(#filter0_f_147_4012)">
<path d="M-21.2312 155.869C-23.7642 148.112 -16.9498 140.521 -8.9651 142.206L107.258 166.733C115.242 168.418 118.409 178.115 112.957 184.187L33.6049 272.576C28.1534 278.648 18.1725 276.542 15.6395 268.785L-21.2312 155.869Z" fill="#A7C7FF" fill-opacity="0.33"/>
</g>
<g opacity="0.2" filter="url(#filter1_f_147_4012)">
<path d="M183.433 98.2451C182.879 91.7403 189.574 87.0748 195.484 89.8472L235.38 108.561C241.291 111.333 241.983 119.464 236.627 123.197L200.473 148.391C195.116 152.123 187.728 148.658 187.174 142.153L183.433 98.2451Z" fill="#0142D3"/>
</g>
<g filter="url(#filter2_f_147_4012)">
<path d="M55.0366 18.6591C59.4723 11.8094 69.6597 12.3303 73.3738 19.5966L106.801 84.9935C110.515 92.2599 104.97 100.822 96.8201 100.405L23.4712 96.6553C15.3214 96.2386 10.6788 87.1557 15.1145 80.306L55.0366 18.6591Z" fill="#005CFF" fill-opacity="0.49"/>
</g>
<path d="M122.177 165.169C159.679 165.169 190.08 135.787 190.08 99.5426C190.08 63.2982 159.679 33.9163 122.177 33.9163C84.6759 33.9163 54.2749 63.2982 54.2749 99.5426C54.2749 135.787 84.6759 165.169 122.177 165.169Z" fill="url(#paint0_linear_147_4012)"/>
<path fill-rule="evenodd" clip-rule="evenodd" d="M31.9493 67.656C43.8492 60.7498 57.3298 59.435 70.2368 59.8484C72.0811 59.9074 73.5266 61.4003 73.4655 63.1827C73.4044 64.9651 71.8598 66.3622 70.0155 66.3032C57.6284 65.9065 45.6738 67.2241 35.3893 73.1928C33.8074 74.1109 31.7548 73.6157 30.8049 72.0868C29.8549 70.5578 30.3673 68.5741 31.9493 67.656Z" fill="url(#paint1_linear_147_4012)"/>
<g filter="url(#filter3_f_147_4012)">
<ellipse cx="121.38" cy="191.922" rx="37.5865" ry="8.20558" fill="#C4C1FE"/>
</g>
<path fill-rule="evenodd" clip-rule="evenodd" d="M209.152 120.127C210.102 121.656 209.589 123.639 208.007 124.557C196.109 131.463 182.621 132.778 169.715 132.365C167.871 132.306 166.425 130.813 166.486 129.031C166.547 127.248 168.092 125.851 169.936 125.91C182.323 126.307 194.284 124.988 204.567 119.021C206.149 118.102 208.202 118.598 209.152 120.127Z" fill="url(#paint2_linear_147_4012)"/>
<path d="M42.808 118.815C43.0718 117.419 45.0712 117.419 45.3351 118.815L46.148 123.118C46.2366 123.586 46.577 123.967 47.0326 124.108L51.5057 125.487C52.7149 125.86 52.7149 127.572 51.5057 127.945L47.0326 129.324C46.577 129.465 46.2366 129.846 46.148 130.314L45.3351 134.617C45.0712 136.013 43.0718 136.013 42.808 134.617L41.995 130.314C41.9065 129.846 41.566 129.465 41.1104 129.324L36.6374 127.945C35.4281 127.572 35.4281 125.86 36.6374 125.487L41.1104 124.108C41.566 123.967 41.9065 123.586 41.995 123.118L42.808 118.815Z" fill="url(#paint3_linear_147_4012)"/>
<path d="M141.722 29.9436C141.985 28.5474 143.985 28.5474 144.249 29.9436L145.062 34.246C145.15 34.7145 145.491 35.0956 145.946 35.2361L150.419 36.6155C151.629 36.9884 151.629 38.7002 150.419 39.0731L145.946 40.4525C145.491 40.593 145.15 40.9741 145.062 41.4426L144.249 45.745C143.985 47.1412 141.985 47.1412 141.722 45.745L140.909 41.4426C140.82 40.9741 140.48 40.593 140.024 40.4525L135.551 39.0731C134.342 38.7002 134.342 36.9884 135.551 36.6155L140.024 35.2361C140.48 35.0956 140.82 34.7145 140.909 34.246L141.722 29.9436Z" fill="url(#paint4_linear_147_4012)"/>
<path d="M59.201 101.661C59.201 103.761 57.8975 105.112 56.6742 105.112C55.4509 105.112 54.1474 103.761 54.1474 101.661C54.1474 99.5606 55.4509 98.2099 56.6742 98.2099C57.8975 98.2099 59.201 99.5606 59.201 101.661Z" stroke="url(#paint5_linear_147_4012)" stroke-width="1.60737"/>
<path d="M167.314 179.388C167.314 181.488 166.011 182.839 164.787 182.839C163.564 182.839 162.261 181.488 162.261 179.388C162.261 177.287 163.564 175.937 164.787 175.937C166.011 175.937 167.314 177.287 167.314 179.388Z" stroke="url(#paint6_linear_147_4012)" stroke-width="1.60737"/>
<path d="M162.298 124.329C162.12 123.438 162.767 122.63 163.461 122.879L168.279 124.609C168.969 124.857 169.187 125.967 168.672 126.609L165.09 131.075C164.575 131.718 163.711 131.412 163.534 130.525L162.298 124.329Z" fill="url(#paint7_linear_147_4012)"/>
<path d="M76.6697 183.108C77.3655 182.882 77.9879 183.699 77.7928 184.581L76.4325 190.735C76.2365 191.622 75.3629 191.91 74.8621 191.252L71.371 186.671C70.8703 186.014 71.1191 184.906 71.8184 184.679L76.6697 183.108Z" fill="url(#paint8_linear_147_4012)"/>
<path d="M97.7493 37.7482C97.7493 39.8486 96.4459 41.1992 95.2225 41.1992C93.9992 41.1992 92.6958 39.8486 92.6958 37.7482C92.6958 35.6478 93.9992 34.2971 95.2225 34.2971C96.4459 34.2971 97.7493 35.6478 97.7493 37.7482Z" stroke="url(#paint9_linear_147_4012)" stroke-width="1.60737"/>
<rect x="134.284" y="188.502" width="27.1739" height="12.4976" rx="6.24878" fill="url(#paint10_linear_147_4012)"/>
<g filter="url(#filter4_f_147_4012)">
<ellipse cx="171.536" cy="86.5242" rx="17.128" ry="8.20558" fill="#40DFF0" fill-opacity="0.6"/>
</g>
<path d="M204.494 55.0436C203.997 58.6615 202.56 62.0985 200.315 65.0335C198.071 67.9685 195.093 70.3055 191.66 71.8262C188.227 73.3468 184.452 74.0013 180.686 73.7286C176.92 73.4559 173.288 72.2648 170.128 70.2668L161.536 73.0946C161.276 73.1788 160.995 73.1887 160.729 73.1231C160.462 73.0575 160.221 72.9191 160.034 72.7245C159.847 72.5299 159.721 72.2873 159.673 72.0257C159.624 71.7641 159.655 71.4946 159.761 71.2493L163.216 63.2779C161.389 60.3211 160.32 56.9844 160.099 53.5466C159.878 50.1089 160.512 46.6701 161.948 43.5175C163.383 40.365 165.579 37.5903 168.351 35.4255C171.123 33.2606 174.39 31.7684 177.881 31.0737C181.371 30.3789 184.983 30.5018 188.415 31.432C191.846 32.3621 194.997 34.0726 197.605 36.4204C200.212 38.7683 202.201 41.6852 203.403 44.9275C204.606 48.1698 204.988 51.6432 204.518 55.0574L204.494 55.0436Z" fill="url(#paint11_linear_147_4012)"/>
<path d="M182.068 64.6148C184.22 64.6148 185.723 63.1461 185.723 61.0967C185.723 59.0131 184.22 57.5444 182.068 57.5444C179.95 57.5444 178.413 59.0131 178.413 61.0967C178.413 63.1461 179.95 64.6148 182.068 64.6148ZM185.415 39.5438H178.721V46.2385L180.428 55.495H183.673L185.415 46.2385V39.5438Z" fill="white"/>
<path d="M58.8076 236.518H64.6904V237.267H58.8076V236.518ZM61.749 237.774C63.1591 237.774 64.1286 238.479 64.1286 239.58C64.1286 240.671 63.1591 241.365 61.749 241.365C60.3168 241.365 59.3584 240.671 59.3584 239.58C59.3584 238.479 60.3168 237.774 61.749 237.774ZM61.749 238.49C60.8346 238.49 60.2287 238.908 60.2287 239.58C60.2287 240.23 60.8346 240.66 61.749 240.66C62.6413 240.66 63.2583 240.23 63.2583 239.58C63.2583 238.908 62.6413 238.49 61.749 238.49ZM65.5938 235.471H66.5081V241.695H65.5938V235.471ZM66.2547 238.214H67.9843V238.974H66.2547V238.214ZM60.0414 242.235H66.5081V245.43H65.5938V242.984H60.0414V242.235ZM61.2863 235.416H62.2007V236.936H61.2863V235.416ZM71.002 236.088H71.7291V237.421C71.7291 238.908 70.8698 240.473 69.4046 241.123L68.9089 240.407C70.2198 239.834 71.002 238.545 71.002 237.421V236.088ZM71.1452 236.088H71.8723V237.421C71.8723 238.523 72.6214 239.646 73.8994 240.142L73.4036 240.836C71.9715 240.263 71.1452 238.886 71.1452 237.421V236.088ZM76.4332 235.482H77.3035V241.618H76.4332V235.482ZM74.8468 238.137H76.7306V238.886H74.8468V238.137ZM74.296 235.669H75.1663V241.299H74.296V235.669ZM74.0316 241.839C76.0806 241.839 77.3586 242.5 77.3586 243.634C77.3586 244.758 76.0806 245.408 74.0316 245.408C71.9715 245.408 70.7156 244.758 70.7156 243.634C70.7156 242.5 71.9715 241.839 74.0316 241.839ZM74.0316 242.555C72.5333 242.555 71.6079 242.951 71.6079 243.634C71.6079 244.306 72.5333 244.703 74.0316 244.703C75.5298 244.703 76.4442 244.306 76.4442 243.634C76.4442 242.951 75.5298 242.555 74.0316 242.555ZM79.0542 239.624H88.0547V240.374H79.0542V239.624ZM80.244 238.082H86.9861V238.82H80.244V238.082ZM80.244 235.791H86.876V236.54H81.1474V238.677H80.244V235.791ZM80.1339 241.233H86.898V243.579H81.0592V244.835H80.1559V242.896H85.9947V241.949H80.1339V241.233ZM80.1559 244.593H87.1955V245.32H80.1559V244.593ZM92.4164 236.187C93.9698 236.187 95.0824 237.146 95.0824 238.534C95.0824 239.933 93.9698 240.891 92.4164 240.891C90.8631 240.891 89.7394 239.933 89.7394 238.534C89.7394 237.146 90.8631 236.187 92.4164 236.187ZM92.4164 236.98C91.3809 236.98 90.6318 237.608 90.6318 238.534C90.6318 239.459 91.3809 240.098 92.4164 240.098C93.441 240.098 94.1901 239.459 94.1901 238.534C94.1901 237.608 93.441 236.98 92.4164 236.98ZM96.3824 235.46H97.2968V245.441H96.3824V235.46ZM89.3649 243.26L89.2327 242.5C91.0504 242.5 93.5622 242.489 95.7324 242.147L95.8095 242.819C93.5732 243.249 91.1385 243.26 89.3649 243.26ZM107.771 245.672L105.116 241.497H106.382L109.07 245.672H107.771ZM105.799 244.703C105.079 244.703 104.444 244.538 103.893 244.207C103.342 243.869 102.912 243.403 102.604 242.808C102.295 242.206 102.141 241.508 102.141 240.715C102.141 239.929 102.295 239.239 102.604 238.644C102.912 238.042 103.342 237.572 103.893 237.234C104.444 236.896 105.079 236.727 105.799 236.727C106.533 236.727 107.176 236.896 107.726 237.234C108.277 237.572 108.703 238.042 109.004 238.644C109.313 239.239 109.467 239.929 109.467 240.715C109.467 241.508 109.313 242.206 109.004 242.808C108.703 243.403 108.277 243.869 107.726 244.207C107.176 244.538 106.533 244.703 105.799 244.703ZM105.81 243.723C106.316 243.723 106.761 243.601 107.143 243.359C107.525 243.117 107.818 242.771 108.024 242.323C108.237 241.875 108.343 241.339 108.343 240.715C108.343 240.091 108.237 239.555 108.024 239.107C107.818 238.659 107.525 238.317 107.143 238.082C106.761 237.84 106.316 237.719 105.81 237.719C105.303 237.719 104.859 237.84 104.477 238.082C104.095 238.317 103.797 238.659 103.584 239.107C103.371 239.555 103.265 240.091 103.265 240.715C103.265 241.339 103.371 241.875 103.584 242.323C103.797 242.771 104.095 243.117 104.477 243.359C104.859 243.601 105.303 243.723 105.81 243.723ZM112.835 244.703C112.402 244.703 112.027 244.619 111.712 244.45C111.396 244.281 111.15 244.027 110.974 243.689C110.805 243.344 110.72 242.915 110.72 242.401V238.875H111.811V242.279C111.811 242.779 111.928 243.153 112.163 243.403C112.398 243.645 112.721 243.767 113.133 243.767C113.412 243.767 113.662 243.704 113.882 243.579C114.11 243.447 114.289 243.256 114.422 243.006C114.554 242.757 114.62 242.448 114.62 242.081V238.875H115.722V244.571H114.741L114.664 243.645C114.51 243.976 114.271 244.237 113.948 244.428C113.632 244.611 113.261 244.703 112.835 244.703ZM117.328 244.571V238.875H118.43V244.571H117.328ZM117.879 237.873C117.674 237.873 117.501 237.807 117.361 237.674C117.222 237.542 117.152 237.373 117.152 237.168C117.152 236.969 117.222 236.808 117.361 236.683C117.501 236.551 117.674 236.485 117.879 236.485C118.085 236.485 118.257 236.551 118.397 236.683C118.536 236.808 118.606 236.969 118.606 237.168C118.606 237.373 118.536 237.542 118.397 237.674C118.257 237.807 118.085 237.873 117.879 237.873ZM119.663 244.571V243.678L122.726 239.79H119.707V238.875H124.015V239.768L120.941 243.656H124.07V244.571H119.663ZM125.331 244.571V236.639H126.433V244.571H125.331ZM130.446 244.703C129.917 244.703 129.45 244.582 129.046 244.339C128.642 244.09 128.323 243.745 128.088 243.304C127.86 242.856 127.746 242.334 127.746 241.74C127.746 241.145 127.86 240.623 128.088 240.175C128.316 239.72 128.631 239.367 129.035 239.118C129.447 238.868 129.924 238.743 130.468 238.743C131.018 238.743 131.485 238.868 131.867 239.118C132.256 239.36 132.553 239.69 132.759 240.109C132.965 240.52 133.067 240.976 133.067 241.475C133.067 241.549 133.064 241.626 133.056 241.707C133.056 241.787 133.053 241.879 133.045 241.982H128.562V241.2H131.977C131.955 240.708 131.801 240.329 131.514 240.065C131.228 239.793 130.871 239.657 130.446 239.657C130.159 239.657 129.891 239.727 129.641 239.867C129.399 240.006 129.201 240.212 129.046 240.484C128.9 240.755 128.826 241.097 128.826 241.508V241.828C128.826 242.254 128.9 242.614 129.046 242.907C129.193 243.194 129.388 243.414 129.63 243.568C129.873 243.715 130.144 243.789 130.446 243.789C130.813 243.789 131.103 243.715 131.316 243.568C131.536 243.421 131.701 243.219 131.812 242.962H132.913C132.818 243.293 132.656 243.59 132.428 243.855C132.208 244.119 131.929 244.328 131.591 244.483C131.261 244.63 130.879 244.703 130.446 244.703ZM136.499 244.571C136.153 244.571 135.852 244.516 135.595 244.406C135.338 244.295 135.14 244.112 135 243.855C134.861 243.598 134.791 243.249 134.791 242.808V239.801H133.8V238.875H134.791L134.923 237.421H135.893V238.875H137.479V239.801H135.893V242.819C135.893 243.135 135.959 243.352 136.091 243.469C136.223 243.579 136.451 243.634 136.774 243.634H137.457V244.571H136.499ZM143.021 235.636C145.213 235.636 146.524 236.253 146.524 237.366C146.524 238.479 145.213 239.096 143.021 239.096C140.818 239.096 139.518 238.479 139.518 237.366C139.518 236.253 140.818 235.636 143.021 235.636ZM143.021 236.33C141.391 236.33 140.454 236.705 140.454 237.366C140.454 238.027 141.391 238.402 143.021 238.402C144.64 238.402 145.577 238.027 145.577 237.366C145.577 236.705 144.64 236.33 143.021 236.33ZM138.515 239.757H147.516V240.495H138.515V239.757ZM139.606 241.343H146.37V243.59H140.531V244.802H139.628V242.929H145.467V242.048H139.606V241.343ZM139.628 244.604H146.668V245.32H139.628V244.604ZM153.947 236.496H154.696V237.3C154.696 239.129 153.594 240.649 151.93 241.244L151.446 240.528C152.955 239.999 153.947 238.721 153.947 237.3V236.496ZM154.112 236.496H154.861V237.289C154.861 238.611 155.819 239.834 157.285 240.329L156.811 241.046C155.169 240.473 154.112 239.007 154.112 237.289V236.496ZM151.732 236.165H157.053V236.914H151.732V236.165ZM158.309 235.471H159.223V241.464H158.309V235.471ZM158.97 238.093H160.7V238.853H158.97V238.093ZM152.757 241.993H159.223V245.43H158.309V242.753H152.757V241.993ZM164.136 236.033H164.896V237.058C164.896 238.985 163.805 240.561 162.098 241.2L161.624 240.451C163.144 239.911 164.136 238.578 164.136 237.058V236.033ZM164.301 236.033H165.05V237.024C165.05 238.435 166.02 239.679 167.474 240.186L166.978 240.902C165.37 240.296 164.301 238.831 164.301 237.024V236.033ZM168.906 235.471H169.82V241.365H168.906V235.471ZM166.549 241.651C168.598 241.651 169.865 242.345 169.865 243.535C169.865 244.725 168.598 245.408 166.549 245.408C164.488 245.408 163.222 244.725 163.222 243.535C163.222 242.345 164.488 241.651 166.549 241.651ZM166.549 242.379C165.05 242.379 164.136 242.808 164.136 243.535C164.136 244.262 165.05 244.692 166.549 244.692C168.047 244.692 168.961 244.262 168.961 243.535C168.961 242.808 168.047 242.379 166.549 242.379ZM166.747 237.575H169.104V238.335H166.747V237.575ZM178.512 235.471H179.426V245.43H178.512V235.471ZM179.206 239.558H181.056V240.329H179.206V239.558ZM171.714 237.058H177.586V237.807H171.714V237.058ZM174.689 238.633C176.099 238.633 177.113 239.58 177.113 240.924C177.113 242.268 176.099 243.216 174.689 243.216C173.29 243.216 172.265 242.268 172.265 240.924C172.265 239.58 173.29 238.633 174.689 238.633ZM174.689 239.393C173.786 239.393 173.136 240.021 173.136 240.924C173.136 241.817 173.786 242.456 174.689 242.456C175.592 242.456 176.242 241.817 176.242 240.924C176.242 240.021 175.592 239.393 174.689 239.393ZM174.215 235.592H175.13V237.399H174.215V235.592ZM182.851 236.463H189.263V237.223H182.851V236.463ZM181.904 243.282H190.904V244.042H181.904V243.282ZM185.396 239.724H186.311V243.656H185.396V239.724ZM188.921 236.463H189.825V237.454C189.825 238.688 189.825 240.054 189.461 242.07L188.547 241.949C188.921 240.043 188.921 238.644 188.921 237.454V236.463ZM100.492 253.242H104.898V253.991H100.492V253.242ZM101.99 255.468H102.893V257.957H101.99V255.468ZM104.535 253.242H105.438V253.771C105.438 254.421 105.438 255.413 105.174 256.724L104.282 256.624C104.535 255.313 104.535 254.41 104.535 253.771V253.242ZM106.793 252.471H107.708V259.973H106.793V252.471ZM107.289 255.71H109.129V256.47H107.289V255.71ZM101.417 261.461H108.027V262.21H101.417V261.461ZM101.417 259.279H102.321V261.692H101.417V259.279ZM99.9851 258.387L99.8859 257.638C101.66 257.638 104.105 257.594 106.121 257.318L106.187 257.979C104.116 258.343 101.737 258.387 99.9851 258.387ZM117.346 252.46H118.261V262.441H117.346V252.46ZM110.67 259.279H111.497C113.16 259.279 114.647 259.213 116.41 258.927L116.509 259.676C114.702 259.973 113.204 260.04 111.497 260.04H110.67V259.279ZM110.648 253.397H115.253V256.955H111.585V259.566H110.67V256.206H114.328V254.146H110.648V253.397ZM126.974 252.471H127.888V262.43H126.974V252.471ZM127.668 256.558H129.519V257.329H127.668V256.558ZM120.177 254.058H126.048V254.807H120.177V254.058ZM123.151 255.633C124.561 255.633 125.575 256.58 125.575 257.924C125.575 259.268 124.561 260.216 123.151 260.216C121.752 260.216 120.728 259.268 120.728 257.924C120.728 256.58 121.752 255.633 123.151 255.633ZM123.151 256.393C122.248 256.393 121.598 257.021 121.598 257.924C121.598 258.817 122.248 259.456 123.151 259.456C124.054 259.456 124.704 258.817 124.704 257.924C124.704 257.021 124.054 256.393 123.151 256.393ZM122.677 252.592H123.592V254.399H122.677V252.592ZM134.288 256.029H136.194V256.79H134.288V256.029ZM132.426 253.408H133.142V255.302C133.142 257.385 132.272 259.401 130.818 260.293L130.245 259.599C131.611 258.795 132.426 257.01 132.426 255.302V253.408ZM132.602 253.408H133.308V255.269C133.308 256.867 134.057 258.563 135.368 259.356L134.839 260.073C133.407 259.191 132.602 257.208 132.602 255.269V253.408ZM137.945 252.471H138.827V262.43H137.945V252.471ZM135.929 252.68H136.789V261.934H135.929V252.68ZM142.704 257.594H143.607V260.579H142.704V257.594ZM146.383 257.594H147.298V260.579H146.383V257.594ZM140.5 260.403H149.523V261.163H140.5V260.403ZM144.995 253.099C147.099 253.099 148.609 254.102 148.609 255.666C148.609 257.219 147.099 258.222 144.995 258.222C142.88 258.222 141.371 257.219 141.371 255.666C141.371 254.102 142.88 253.099 144.995 253.099ZM144.995 253.826C143.398 253.826 142.252 254.553 142.252 255.666C142.252 256.768 143.398 257.495 144.995 257.495C146.593 257.495 147.727 256.768 147.727 255.666C147.727 254.553 146.593 253.826 144.995 253.826ZM151.153 259.191L151.02 253.859H152.21L152.078 259.191H151.153ZM151.615 261.626C151.41 261.626 151.237 261.56 151.098 261.428C150.965 261.288 150.899 261.123 150.899 260.932C150.899 260.734 150.965 260.568 151.098 260.436C151.237 260.297 151.41 260.227 151.615 260.227C151.828 260.227 152.001 260.297 152.133 260.436C152.265 260.568 152.331 260.734 152.331 260.932C152.331 261.123 152.265 261.288 152.133 261.428C152.001 261.56 151.828 261.626 151.615 261.626Z" fill="#9E9E9E"/>
<path d="M107.167 222.242L102.815 215.371H105.471L109.943 222.242H107.167ZM104.34 220.563C103.163 220.563 102.129 220.3 101.238 219.775C100.347 219.249 99.6442 218.524 99.1301 217.598C98.6274 216.662 98.3761 215.582 98.3761 214.36C98.3761 213.137 98.6274 212.063 99.1301 211.138C99.6442 210.201 100.347 209.47 101.238 208.944C102.129 208.419 103.163 208.156 104.34 208.156C105.528 208.156 106.567 208.419 107.459 208.944C108.361 209.47 109.058 210.201 109.549 211.138C110.052 212.063 110.303 213.137 110.303 214.36C110.303 215.582 110.052 216.662 109.549 217.598C109.058 218.524 108.361 219.249 107.459 219.775C106.567 220.3 105.528 220.563 104.34 220.563ZM104.34 218.49C105.071 218.49 105.705 218.324 106.242 217.993C106.79 217.65 107.213 217.17 107.51 216.553C107.807 215.936 107.956 215.205 107.956 214.36C107.956 213.503 107.807 212.772 107.51 212.166C107.213 211.549 106.79 211.075 106.242 210.744C105.705 210.412 105.071 210.247 104.34 210.247C103.62 210.247 102.986 210.412 102.438 210.744C101.901 211.075 101.484 211.549 101.187 212.166C100.889 212.772 100.741 213.503 100.741 214.36C100.741 215.205 100.889 215.936 101.187 216.553C101.484 217.17 101.901 217.65 102.438 217.993C102.986 218.324 103.62 218.49 104.34 218.49ZM115.412 220.563C114.715 220.563 114.116 220.42 113.613 220.135C113.122 219.838 112.745 219.403 112.482 218.832C112.219 218.25 112.088 217.541 112.088 216.707V211.772H114.401V216.467C114.401 217.176 114.544 217.713 114.83 218.078C115.115 218.432 115.567 218.609 116.184 218.609C116.572 218.609 116.915 218.524 117.212 218.352C117.52 218.17 117.76 217.907 117.931 217.564C118.103 217.221 118.189 216.804 118.189 216.313V211.772H120.502V220.357H118.463L118.291 218.952C118.029 219.432 117.652 219.82 117.16 220.118C116.669 220.415 116.086 220.563 115.412 220.563ZM122.819 220.357V211.772H125.133V220.357H122.819ZM123.984 210.572C123.562 210.572 123.219 210.447 122.956 210.195C122.693 209.944 122.562 209.63 122.562 209.253C122.562 208.876 122.693 208.567 122.956 208.327C123.219 208.087 123.562 207.967 123.984 207.967C124.407 207.967 124.75 208.087 125.013 208.327C125.287 208.567 125.424 208.876 125.424 209.253C125.424 209.63 125.287 209.944 125.013 210.195C124.75 210.447 124.407 210.572 123.984 210.572ZM126.888 220.357V218.507L131.207 213.674H126.939V211.772H133.863V213.623L129.493 218.438H133.948V220.357H126.888ZM135.821 220.357V208.019H138.135V220.357H135.821ZM144.52 220.563C143.652 220.563 142.881 220.38 142.207 220.015C141.544 219.638 141.024 219.118 140.647 218.455C140.282 217.793 140.099 217.021 140.099 216.142C140.099 215.251 140.282 214.462 140.647 213.777C141.013 213.08 141.527 212.537 142.19 212.149C142.864 211.76 143.641 211.566 144.52 211.566C145.377 211.566 146.125 211.755 146.765 212.132C147.405 212.497 147.902 213 148.256 213.64C148.622 214.28 148.804 215.005 148.804 215.816C148.804 215.93 148.799 216.056 148.787 216.193C148.787 216.33 148.782 216.473 148.77 216.622H141.744V215.216H146.457C146.434 214.668 146.24 214.234 145.874 213.914C145.52 213.594 145.074 213.434 144.537 213.434C144.137 213.434 143.772 213.526 143.441 213.708C143.109 213.891 142.847 214.16 142.652 214.514C142.47 214.868 142.378 215.325 142.378 215.885V216.382C142.378 216.85 142.464 217.256 142.635 217.598C142.818 217.941 143.069 218.21 143.389 218.404C143.709 218.587 144.08 218.678 144.503 218.678C144.926 218.678 145.274 218.587 145.548 218.404C145.834 218.221 146.051 217.981 146.2 217.684H148.565C148.393 218.221 148.119 218.712 147.742 219.158C147.365 219.592 146.902 219.935 146.354 220.186C145.817 220.437 145.206 220.563 144.52 220.563ZM154.438 220.357C153.832 220.357 153.301 220.266 152.844 220.083C152.398 219.889 152.05 219.575 151.799 219.141C151.547 218.695 151.422 218.09 151.422 217.324V213.691H149.948V211.772H151.422L151.679 209.424H153.735V211.772H156.014V213.691H153.735V217.358C153.735 217.747 153.821 218.015 153.992 218.164C154.164 218.312 154.455 218.387 154.866 218.387H155.98V220.357H154.438Z" fill="black"/>
<path d="M67.0166 135.551C60.9807 132.175 60.8904 122.514 66.0369 119.805L102.582 102.379C107.87 99.326 116.031 97.315 122.039 99.1932C123.715 99.717 125.378 100.348 127.123 100.538L188.001 107.165C189.493 107.328 191.042 107.672 192.037 108.796C195.706 112.945 194.86 122.399 189.548 125.466L131.298 159.715C125.252 163.206 115.45 163.206 109.404 159.715L67.0166 135.551Z" fill="#6666FF"/>
<g filter="url(#filter5_d_147_4012)">
<rect x="0.447185" width="92.9797" height="70.1547" rx="11.7901" transform="matrix(0.866043 -0.49997 0.866043 0.49997 57.4647 123.77)" fill="url(#paint12_linear_147_4012)" stroke="url(#paint13_linear_147_4012)" stroke-width="0.516354"/>
</g>
<g filter="url(#filter6_d_147_4012)">
<g filter="url(#filter7_b_147_4012)">
<path d="M78.4499 123.39C74.9572 121.436 74.905 115.846 77.8831 114.278L99.0303 104.194C102.529 102.175 108.201 102.175 111.7 104.194L141.038 119.245C144.277 120.864 144.126 126.441 140.628 128.461L120.842 140.429C117.343 142.448 111.671 142.448 108.172 140.429L78.4499 123.39Z" fill="#D9C3EE" fill-opacity="0.5"/>
</g>
<g filter="url(#filter8_b_147_4012)">
<rect x="0.27149" width="38.0795" height="48.0198" rx="7.15787" transform="matrix(0.866043 -0.49997 0.866043 0.49997 72.1526 116.782)" fill="#D9C3EE" fill-opacity="0.5" stroke="url(#paint14_linear_147_4012)" stroke-width="0.313483"/>
</g>
</g>
<g filter="url(#filter9_d_147_4012)">
<g filter="url(#filter10_b_147_4012)">
<path d="M121.908 100.626C118.416 98.6721 118.363 93.0817 121.342 91.5143L142.489 81.4303C145.987 79.4106 151.66 79.4106 155.158 81.4303L184.496 96.4809C187.735 98.1005 187.585 103.677 184.086 105.697L164.3 117.665C160.802 119.684 155.129 119.684 151.631 117.665L121.908 100.626Z" fill="#D9C3EE" fill-opacity="0.5"/>
</g>
<g filter="url(#filter11_b_147_4012)">
<rect x="0.27149" width="38.0795" height="48.0198" rx="7.15787" transform="matrix(0.866043 -0.49997 0.866043 0.49997 115.611 94.0178)" fill="#D9C3EE" fill-opacity="0.5" stroke="url(#paint15_linear_147_4012)" stroke-width="0.313483"/>
</g>
</g>
<g filter="url(#filter12_b_147_4012)">
<path d="M90.5391 104.431C85.8722 101.821 85.8024 94.351 89.7817 92.2567L118.038 78.7826C122.713 76.0839 130.293 76.0839 134.967 78.7826L174.168 98.893C178.497 101.057 178.295 108.508 173.62 111.207L147.183 127.199C142.508 129.897 134.929 129.897 130.254 127.199L90.5391 104.431Z" fill="white" fill-opacity="0.74"/>
</g>
<g filter="url(#filter13_b_147_4012)">
<rect x="0.362762" width="50.8814" height="64.1636" rx="9.56428" transform="matrix(0.866043 -0.49997 0.866043 0.49997 82.1233 95.6023)" fill="white" fill-opacity="0.74" stroke="url(#paint16_linear_147_4012)" stroke-width="0.418873"/>
</g>
<g filter="url(#filter14_i_147_4012)">
<path d="M103.934 94.0369L113.479 88.5262" stroke="#784BD9" stroke-width="4.04844" stroke-linecap="round" stroke-linejoin="round"/>
<path d="M115.498 100.713L125.043 95.2022" stroke="#784BD9" stroke-width="4.04844" stroke-linecap="round" stroke-linejoin="round"/>
</g>
<g filter="url(#filter15_i_147_4012)">
<path d="M109.78 97.1575L123.673 89.1367" stroke="#784BD9" stroke-width="4.04844" stroke-linecap="round" stroke-linejoin="round"/>
</g>
<g filter="url(#filter16_f_147_4012)">
<ellipse cx="60.3838" cy="145.277" rx="22.3872" ry="7.19589" fill="#FF4C77" fill-opacity="0.3"/>
</g>
<path d="M53.2536 152.093C56.2744 153.298 59.5512 153.718 62.7782 153.314C66.0052 152.91 69.0773 151.695 71.708 149.783C74.3386 147.871 76.4421 145.324 77.8221 142.379C79.2022 139.434 79.8139 136.188 79.6001 132.943L85.4372 127.714C85.6112 127.555 85.7361 127.35 85.7971 127.122C85.8581 126.895 85.8527 126.654 85.7814 126.43C85.7102 126.205 85.5761 126.006 85.395 125.855C85.2139 125.704 84.9935 125.608 84.7597 125.579L77.1155 124.69C75.5943 122.018 73.4553 119.75 70.8773 118.074C68.2993 116.398 65.3575 115.365 62.298 115.059C59.2385 114.754 56.1504 115.186 53.2922 116.319C50.4339 117.453 47.8887 119.254 45.8696 121.573C43.8504 123.891 42.4161 126.66 41.6866 129.647C40.9572 132.634 40.9538 135.752 41.6768 138.741C42.3999 141.729 43.8282 144.501 45.8424 146.824C47.8565 149.147 50.3978 150.954 53.2536 152.093Z" fill="url(#paint17_linear_147_4012)"/>
<path d="M59.4384 145.909C61.5287 145.909 63.0177 144.477 63.0177 142.473C63.0177 140.469 61.5287 139.037 59.4384 139.037C57.3768 139.037 55.8591 140.469 55.8591 142.473C55.8591 144.477 57.3768 145.909 59.4384 145.909ZM62.3018 138.464C62.3018 136.574 63.39 135.887 64.8789 135.2C66.8547 134.284 68.315 132.422 68.315 130.132C68.315 126.524 64.7644 124.004 59.9538 124.004C54.7997 124.004 51.1631 126.896 50.8481 130.933L57.434 132.136C57.6058 130.561 58.4362 129.444 59.6102 129.444C60.4979 129.444 61.1565 130.046 61.1565 130.876C61.1565 131.85 60.1829 132.451 59.4098 132.909C57.3481 134.255 56.575 135.744 56.575 138.464H62.3018Z" fill="white"/>
</g>
<defs>
<filter id="filter0_f_147_4012" x="-99.1488" y="59.3668" width="278.052" height="278.052" filterUnits="userSpaceOnUse" color-interpolation-filters="sRGB">
<feFlood flood-opacity="0" result="BackgroundImageFix"/>
<feBlend mode="normal" in="SourceGraphic" in2="BackgroundImageFix" result="shape"/>
<feGaussianBlur stdDeviation="6.1203" result="effect1_foregroundBlur_147_4012"/>
</filter>
<filter id="filter1_f_147_4012" x="144.948" y="56.9183" width="122.961" height="122.961" filterUnits="userSpaceOnUse" color-interpolation-filters="sRGB">
<feFlood flood-opacity="0" result="BackgroundImageFix"/>
<feBlend mode="normal" in="SourceGraphic" in2="BackgroundImageFix" result="shape"/>
<feGaussianBlur stdDeviation="1.22406" result="effect1_foregroundBlur_147_4012"/>
</filter>
<filter id="filter2_f_147_4012" x="-18.074" y="-13.0742" width="159.687" height="159.687" filterUnits="userSpaceOnUse" color-interpolation-filters="sRGB">
<feFlood flood-opacity="0" result="BackgroundImageFix"/>
<feBlend mode="normal" in="SourceGraphic" in2="BackgroundImageFix" result="shape"/>
<feGaussianBlur stdDeviation="6.53698" result="effect1_foregroundBlur_147_4012"/>
</filter>
<filter id="filter3_f_147_4012" x="70.3987" y="170.322" width="101.962" height="43.2007" filterUnits="userSpaceOnUse" color-interpolation-filters="sRGB">
<feFlood flood-opacity="0" result="BackgroundImageFix"/>
<feBlend mode="normal" in="SourceGraphic" in2="BackgroundImageFix" result="shape"/>
<feGaussianBlur stdDeviation="6.69738" result="effect1_foregroundBlur_147_4012"/>
</filter>
<filter id="filter4_f_147_4012" x="141.013" y="64.9238" width="61.0454" height="43.2007" filterUnits="userSpaceOnUse" color-interpolation-filters="sRGB">
<feFlood flood-opacity="0" result="BackgroundImageFix"/>
<feBlend mode="normal" in="SourceGraphic" in2="BackgroundImageFix" result="shape"/>
<feGaussianBlur stdDeviation="6.69738" result="effect1_foregroundBlur_147_4012"/>
</filter>
<filter id="filter5_d_147_4012" x="49.0706" y="80.3298" width="158.844" height="107.526" filterUnits="userSpaceOnUse" color-interpolation-filters="sRGB">
<feFlood flood-opacity="0" result="BackgroundImageFix"/>
<feColorMatrix in="SourceAlpha" type="matrix" values="0 0 0 0 0 0 0 0 0 0 0 0 0 0 0 0 0 0 127 0" result="hardAlpha"/>
<feOffset dy="18.0581"/>
<feGaussianBlur stdDeviation="7.22322"/>
<feComposite in2="hardAlpha" operator="out"/>
<feColorMatrix type="matrix" values="0 0 0 0 0.491698 0 0 0 0 0.263938 0 0 0 0 0.914681 0 0 0 0.5 0"/>
<feBlend mode="normal" in2="BackgroundImageFix" result="effect1_dropShadow_147_4012"/>
<feBlend mode="normal" in="SourceGraphic" in2="effect1_dropShadow_147_4012" result="shape"/>
</filter>
<filter id="filter6_d_147_4012" x="65.9199" y="96.8922" width="87.4088" height="61.9793" filterUnits="userSpaceOnUse" color-interpolation-filters="sRGB">
<feFlood flood-opacity="0" result="BackgroundImageFix"/>
<feColorMatrix in="SourceAlpha" type="matrix" values="0 0 0 0 0 0 0 0 0 0 0 0 0 0 0 0 0 0 127 0" result="hardAlpha"/>
<feOffset dy="7.11369"/>
<feGaussianBlur stdDeviation="4.90724"/>
<feComposite in2="hardAlpha" operator="out"/>
<feColorMatrix type="matrix" values="0 0 0 0 0.498731 0 0 0 0 0.266435 0 0 0 0 1 0 0 0 0.43 0"/>
<feBlend mode="normal" in2="BackgroundImageFix" result="effect1_dropShadow_147_4012"/>
<feBlend mode="normal" in="SourceGraphic" in2="effect1_dropShadow_147_4012" result="shape"/>
</filter>
<filter id="filter7_b_147_4012" x="71.5546" y="98.4997" width="75.989" height="47.6235" filterUnits="userSpaceOnUse" color-interpolation-filters="sRGB">
<feFlood flood-opacity="0" result="BackgroundImageFix"/>
<feGaussianBlur in="BackgroundImageFix" stdDeviation="2.08989"/>
<feComposite in2="SourceAlpha" operator="in" result="effect1_backgroundBlur_147_4012"/>
<feBlend mode="normal" in="SourceGraphic" in2="effect1_backgroundBlur_147_4012" result="shape"/>
</filter>
<filter id="filter8_b_147_4012" x="71.6474" y="95.4132" width="76.0466" height="47.4355" filterUnits="userSpaceOnUse" color-interpolation-filters="sRGB">
<feFlood flood-opacity="0" result="BackgroundImageFix"/>
<feGaussianBlur in="BackgroundImageFix" stdDeviation="2.08989"/>
<feComposite in2="SourceAlpha" operator="in" result="effect1_backgroundBlur_147_4012"/>
<feBlend mode="normal" in="SourceGraphic" in2="effect1_backgroundBlur_147_4012" result="shape"/>
</filter>
<filter id="filter9_d_147_4012" x="109.378" y="74.1283" width="87.4083" height="61.9793" filterUnits="userSpaceOnUse" color-interpolation-filters="sRGB">
<feFlood flood-opacity="0" result="BackgroundImageFix"/>
<feColorMatrix in="SourceAlpha" type="matrix" values="0 0 0 0 0 0 0 0 0 0 0 0 0 0 0 0 0 0 127 0" result="hardAlpha"/>
<feOffset dy="7.11369"/>
<feGaussianBlur stdDeviation="4.90724"/>
<feComposite in2="hardAlpha" operator="out"/>
<feColorMatrix type="matrix" values="0 0 0 0 0.498731 0 0 0 0 0.266435 0 0 0 0 1 0 0 0 0.43 0"/>
<feBlend mode="normal" in2="BackgroundImageFix" result="effect1_dropShadow_147_4012"/>
<feBlend mode="normal" in="SourceGraphic" in2="effect1_dropShadow_147_4012" result="shape"/>
</filter>
<filter id="filter10_b_147_4012" x="115.013" y="75.7357" width="75.989" height="47.6235" filterUnits="userSpaceOnUse" color-interpolation-filters="sRGB">
<feFlood flood-opacity="0" result="BackgroundImageFix"/>
<feGaussianBlur in="BackgroundImageFix" stdDeviation="2.08989"/>
<feComposite in2="SourceAlpha" operator="in" result="effect1_backgroundBlur_147_4012"/>
<feBlend mode="normal" in="SourceGraphic" in2="effect1_backgroundBlur_147_4012" result="shape"/>
</filter>
<filter id="filter11_b_147_4012" x="115.105" y="72.6493" width="76.0466" height="47.4355" filterUnits="userSpaceOnUse" color-interpolation-filters="sRGB">
<feFlood flood-opacity="0" result="BackgroundImageFix"/>
<feGaussianBlur in="BackgroundImageFix" stdDeviation="2.08989"/>
<feComposite in2="SourceAlpha" operator="in" result="effect1_backgroundBlur_147_4012"/>
<feBlend mode="normal" in="SourceGraphic" in2="effect1_backgroundBlur_147_4012" result="shape"/>
</filter>
<filter id="filter12_b_147_4012" x="81.3257" y="71.1736" width="101.536" height="63.6341" filterUnits="userSpaceOnUse" color-interpolation-filters="sRGB">
<feFlood flood-opacity="0" result="BackgroundImageFix"/>
<feGaussianBlur in="BackgroundImageFix" stdDeviation="2.79249"/>
<feComposite in2="SourceAlpha" operator="in" result="effect1_backgroundBlur_147_4012"/>
<feBlend mode="normal" in="SourceGraphic" in2="effect1_backgroundBlur_147_4012" result="shape"/>
</filter>
<filter id="filter13_b_147_4012" x="81.4482" y="67.0498" width="101.612" height="63.3828" filterUnits="userSpaceOnUse" color-interpolation-filters="sRGB">
<feFlood flood-opacity="0" result="BackgroundImageFix"/>
<feGaussianBlur in="BackgroundImageFix" stdDeviation="2.79249"/>
<feComposite in2="SourceAlpha" operator="in" result="effect1_backgroundBlur_147_4012"/>
<feBlend mode="normal" in="SourceGraphic" in2="effect1_backgroundBlur_147_4012" result="shape"/>
</filter>
<filter id="filter14_i_147_4012" x="101.455" y="87.095" width="26.0679" height="15.5389" filterUnits="userSpaceOnUse" color-interpolation-filters="sRGB">
<feFlood flood-opacity="0" result="BackgroundImageFix"/>
<feBlend mode="normal" in="SourceGraphic" in2="BackgroundImageFix" result="shape"/>
<feColorMatrix in="SourceAlpha" type="matrix" values="0 0 0 0 0 0 0 0 0 0 0 0 0 0 0 0 0 0 127 0" result="hardAlpha"/>
<feOffset dy="1.1388"/>
<feGaussianBlur stdDeviation="0.244934"/>
<feComposite in2="hardAlpha" operator="arithmetic" k2="-1" k3="1"/>
<feColorMatrix type="matrix" values="0 0 0 0 1 0 0 0 0 1 0 0 0 0 1 0 0 0 1 0"/>
<feBlend mode="normal" in2="shape" result="effect1_innerShadow_147_4012"/>
</filter>
<filter id="filter15_i_147_4012" x="107.301" y="87.7056" width="18.8516" height="11.3729" filterUnits="userSpaceOnUse" color-interpolation-filters="sRGB">
<feFlood flood-opacity="0" result="BackgroundImageFix"/>
<feBlend mode="normal" in="SourceGraphic" in2="BackgroundImageFix" result="shape"/>
<feColorMatrix in="SourceAlpha" type="matrix" values="0 0 0 0 0 0 0 0 0 0 0 0 0 0 0 0 0 0 127 0" result="hardAlpha"/>
<feOffset dy="1.1388"/>
<feGaussianBlur stdDeviation="0.244934"/>
<feComposite in2="hardAlpha" operator="arithmetic" k2="-1" k3="1"/>
<feColorMatrix type="matrix" values="0 0 0 0 1 0 0 0 0 1 0 0 0 0 1 0 0 0 1 0"/>
<feBlend mode="normal" in2="shape" result="effect1_innerShadow_147_4012"/>
</filter>
<filter id="filter16_f_147_4012" x="24.6709" y="124.755" width="71.4258" height="41.0433" filterUnits="userSpaceOnUse" color-interpolation-filters="sRGB">
<feFlood flood-opacity="0" result="BackgroundImageFix"/>
<feBlend mode="normal" in="SourceGraphic" in2="BackgroundImageFix" result="shape"/>
<feGaussianBlur stdDeviation="6.66286" result="effect1_foregroundBlur_147_4012"/>
</filter>
<linearGradient id="paint0_linear_147_4012" x1="121.654" y1="12.5467" x2="122.953" y2="243.017" gradientUnits="userSpaceOnUse">
<stop stop-color="white" stop-opacity="0"/>
<stop offset="1" stop-color="#9DB3FF"/>
</linearGradient>
<linearGradient id="paint1_linear_147_4012" x1="68.4832" y1="73.7468" x2="41.0928" y2="45.8938" gradientUnits="userSpaceOnUse">
<stop stop-color="#5149F2"/>
<stop offset="1" stop-color="#F7F7FF"/>
</linearGradient>
<linearGradient id="paint2_linear_147_4012" x1="169.737" y1="137.069" x2="196.493" y2="155.707" gradientUnits="userSpaceOnUse">
<stop stop-color="#5149F2"/>
<stop offset="1" stop-color="#F7F7FF"/>
</linearGradient>
<linearGradient id="paint3_linear_147_4012" x1="52.1368" y1="132.438" x2="31.5665" y2="101.747" gradientUnits="userSpaceOnUse">
<stop stop-color="#5149F2"/>
<stop offset="1" stop-color="#F7F7FF"/>
</linearGradient>
<linearGradient id="paint4_linear_147_4012" x1="151.05" y1="43.5662" x2="130.48" y2="12.8754" gradientUnits="userSpaceOnUse">
<stop stop-color="#5149F2"/>
<stop offset="1" stop-color="#F7F7FF"/>
</linearGradient>
<linearGradient id="paint5_linear_147_4012" x1="59.0266" y1="103.33" x2="53.0269" y2="94.3784" gradientUnits="userSpaceOnUse">
<stop stop-color="#5149F2"/>
<stop offset="1" stop-color="#F7F7FF"/>
</linearGradient>
<linearGradient id="paint6_linear_147_4012" x1="167.14" y1="181.057" x2="161.14" y2="172.105" gradientUnits="userSpaceOnUse">
<stop stop-color="#5149F2"/>
<stop offset="1" stop-color="#F7F7FF"/>
</linearGradient>
<linearGradient id="paint7_linear_147_4012" x1="168.928" y1="125.375" x2="156.242" y2="122.146" gradientUnits="userSpaceOnUse">
<stop stop-color="#5149F2"/>
<stop offset="1" stop-color="#F7F7FF"/>
</linearGradient>
<linearGradient id="paint8_linear_147_4012" x1="75.828" y1="191.581" x2="81.9632" y2="176.877" gradientUnits="userSpaceOnUse">
<stop stop-color="#5149F2"/>
<stop offset="1" stop-color="#F7F7FF"/>
</linearGradient>
<linearGradient id="paint9_linear_147_4012" x1="97.5749" y1="39.4171" x2="91.5753" y2="30.4656" gradientUnits="userSpaceOnUse">
<stop stop-color="#5149F2"/>
<stop offset="1" stop-color="#F7F7FF"/>
</linearGradient>
<linearGradient id="paint10_linear_147_4012" x1="157.467" y1="197.202" x2="137.636" y2="181.734" gradientUnits="userSpaceOnUse">
<stop stop-color="#5149F2"/>
<stop offset="1" stop-color="#F7F7FF"/>
</linearGradient>
<linearGradient id="paint11_linear_147_4012" x1="159.668" y1="30.7334" x2="180.984" y2="74.3742" gradientUnits="userSpaceOnUse">
<stop stop-color="#49E2F2"/>
<stop offset="1" stop-color="#31D9EB"/>
</linearGradient>
<linearGradient id="paint12_linear_147_4012" x1="17.5334" y1="59.1508" x2="15.8936" y2="28.1649" gradientUnits="userSpaceOnUse">
<stop stop-color="#8E6CFF"/>
<stop offset="0.625" stop-color="#FF8DF4"/>
</linearGradient>
<linearGradient id="paint13_linear_147_4012" x1="8.10113" y1="28.7459" x2="38.4811" y2="66.4417" gradientUnits="userSpaceOnUse">
<stop stop-color="white" stop-opacity="0.43"/>
<stop offset="0.846595" stop-color="white" stop-opacity="0.44"/>
<stop offset="1" stop-color="white" stop-opacity="0"/>
</linearGradient>
<linearGradient id="paint14_linear_147_4012" x1="4.63383" y1="21.174" x2="25.8615" y2="37.1303" gradientUnits="userSpaceOnUse">
<stop stop-color="white" stop-opacity="0.09"/>
<stop offset="0.846595" stop-color="white" stop-opacity="0.79"/>
<stop offset="1" stop-color="white" stop-opacity="0.17"/>
</linearGradient>
<linearGradient id="paint15_linear_147_4012" x1="4.63383" y1="21.174" x2="25.8615" y2="37.1303" gradientUnits="userSpaceOnUse">
<stop stop-color="white" stop-opacity="0.09"/>
<stop offset="0.846595" stop-color="white" stop-opacity="0.79"/>
<stop offset="1" stop-color="white" stop-opacity="0.17"/>
</linearGradient>
<linearGradient id="paint16_linear_147_4012" x1="6.19168" y1="28.2925" x2="34.5558" y2="49.6132" gradientUnits="userSpaceOnUse">
<stop stop-color="white" stop-opacity="0.09"/>
<stop offset="0.846595" stop-color="white" stop-opacity="0.79"/>
<stop offset="1" stop-color="white" stop-opacity="0.17"/>
</linearGradient>
<linearGradient id="paint17_linear_147_4012" x1="36.5184" y1="142.656" x2="87.0163" y2="127.06" gradientUnits="userSpaceOnUse">
<stop stop-color="#FF698D"/>
<stop offset="1" stop-color="#FF3868"/>
</linearGradient>
<clipPath id="clip0_147_4012">
<rect width="260" height="290" rx="20" fill="white"/>
</clipPath>
</defs>
</svg>
