<svg width="260" height="293" viewBox="0 0 260 293" fill="none" xmlns="http://www.w3.org/2000/svg">
<g clip-path="url(#clip0_147_3905)">
<rect width="260" height="293" rx="20" fill="#FCFDFF"/>
<g filter="url(#filter0_f_147_3905)">
<path d="M19.6699 149.939C21.875 147.134 25.6229 146.047 28.9866 147.237L93.8424 170.178C97.2693 171.39 99.5127 174.687 99.3832 178.32L96.9547 246.442C96.8267 250.034 94.4079 253.137 90.9568 254.138L24.5139 273.408C21.0627 274.409 17.3589 273.082 15.3293 270.116L-23.1717 213.864C-25.2247 210.864 -25.0931 206.879 -22.8466 204.021L19.6699 149.939Z" fill="#8EE2F4" fill-opacity="0.5"/>
</g>
<g opacity="0.5" filter="url(#filter1_f_147_3905)">
<path d="M207.893 156.561C210.809 154.442 214.758 154.442 217.675 156.561L235.591 169.578C238.507 171.697 239.728 175.453 238.614 178.881L231.77 199.943C230.656 203.372 227.461 205.693 223.857 205.693H201.711C198.106 205.693 194.911 203.372 193.797 199.943L186.953 178.881C185.839 175.453 187.06 171.697 189.976 169.578L207.893 156.561Z" fill="#36DBEC"/>
</g>
<g opacity="0.5" filter="url(#filter2_f_147_3905)">
<path d="M237.498 31.1802C238.228 33.7309 237.232 36.4616 235.032 37.9442L221.515 47.0518C219.315 48.5343 216.411 48.4315 214.321 46.7971L201.482 36.7565C199.392 35.122 198.592 32.3278 199.501 29.8351L205.083 14.5221C205.991 12.0294 208.402 10.4053 211.053 10.4992L227.342 11.0758C229.993 11.1697 232.282 12.9602 233.013 15.5108L237.498 31.1802Z" fill="#6FCFE4"/>
</g>
<g filter="url(#filter3_f_147_3905)">
<path d="M44.8813 28.905C46.0118 25.482 49.2179 23.1762 52.8228 23.1935L89.6414 23.3712C93.2463 23.3886 96.43 25.7253 97.5274 29.1591L108.736 64.2306C109.833 67.6644 108.595 71.4143 105.668 73.5191L75.777 95.0168C72.8504 97.1216 68.9012 97.1026 65.995 94.9696L36.3126 73.1844C33.4065 71.0515 32.2042 67.2897 33.3348 63.8667L44.8813 28.905Z" fill="#99E5F5"/>
</g>
<path d="M64.1055 236.518H69.9883V237.267H64.1055V236.518ZM67.0469 237.774C68.457 237.774 69.4264 238.479 69.4264 239.58C69.4264 240.671 68.457 241.365 67.0469 241.365C65.6147 241.365 64.6563 240.671 64.6563 239.58C64.6563 238.479 65.6147 237.774 67.0469 237.774ZM67.0469 238.49C66.1325 238.49 65.5266 238.908 65.5266 239.58C65.5266 240.23 66.1325 240.66 67.0469 240.66C67.9392 240.66 68.5561 240.23 68.5561 239.58C68.5561 238.908 67.9392 238.49 67.0469 238.49ZM70.8916 235.471H71.806V241.695H70.8916V235.471ZM71.5526 238.214H73.2822V238.974H71.5526V238.214ZM65.3393 242.235H71.806V245.43H70.8916V242.984H65.3393V242.235ZM66.5842 235.416H67.4985V236.936H66.5842V235.416ZM76.2999 236.088H77.027V237.421C77.027 238.908 76.1677 240.473 74.7025 241.123L74.2068 240.407C75.5177 239.834 76.2999 238.545 76.2999 237.421V236.088ZM76.4431 236.088H77.1702V237.421C77.1702 238.523 77.9193 239.646 79.1972 240.142L78.7015 240.836C77.2693 240.263 76.4431 238.886 76.4431 237.421V236.088ZM81.731 235.482H82.6014V241.618H81.731V235.482ZM80.1447 238.137H82.0285V238.886H80.1447V238.137ZM79.5938 235.669H80.4641V241.299H79.5938V235.669ZM79.3294 241.839C81.3785 241.839 82.6564 242.5 82.6564 243.634C82.6564 244.758 81.3785 245.408 79.3294 245.408C77.2693 245.408 76.0135 244.758 76.0135 243.634C76.0135 242.5 77.2693 241.839 79.3294 241.839ZM79.3294 242.555C77.8312 242.555 76.9058 242.951 76.9058 243.634C76.9058 244.306 77.8312 244.703 79.3294 244.703C80.8277 244.703 81.7421 244.306 81.7421 243.634C81.7421 242.951 80.8277 242.555 79.3294 242.555ZM84.3521 239.624H93.3526V240.374H84.3521V239.624ZM85.5419 238.082H92.284V238.82H85.5419V238.082ZM85.5419 235.791H92.1739V236.54H86.4453V238.677H85.5419V235.791ZM85.4317 241.233H92.1959V243.579H86.3571V244.835H85.4538V242.896H91.2925V241.949H85.4317V241.233ZM85.4538 244.593H92.4933V245.32H85.4538V244.593ZM97.7143 236.187C99.2676 236.187 100.38 237.146 100.38 238.534C100.38 239.933 99.2676 240.891 97.7143 240.891C96.161 240.891 95.0373 239.933 95.0373 238.534C95.0373 237.146 96.161 236.187 97.7143 236.187ZM97.7143 236.98C96.6788 236.98 95.9296 237.608 95.9296 238.534C95.9296 239.459 96.6788 240.098 97.7143 240.098C98.7389 240.098 99.488 239.459 99.488 238.534C99.488 237.608 98.7389 236.98 97.7143 236.98ZM101.68 235.46H102.595V245.441H101.68V235.46ZM94.6627 243.26L94.5305 242.5C96.3483 242.5 98.86 242.489 101.03 242.147L101.107 242.819C98.871 243.249 96.4364 243.26 94.6627 243.26ZM111.482 235.824H112.286V236.375C112.286 238.28 110.347 239.646 108.276 239.999L107.913 239.261C109.73 238.985 111.482 237.796 111.482 236.375V235.824ZM111.647 235.824H112.44V236.375C112.44 237.763 114.214 238.985 116.01 239.261L115.646 239.999C113.597 239.646 111.647 238.258 111.647 236.375V235.824ZM111.482 241.64H112.385V245.43H111.482V241.64ZM107.461 241.079H116.462V241.839H107.461V241.079ZM122.597 237.84H125.274V238.6H122.597V237.84ZM120.305 235.923C121.793 235.923 122.872 236.87 122.872 238.236C122.872 239.602 121.793 240.539 120.305 240.539C118.818 240.539 117.739 239.602 117.739 238.236C117.739 236.87 118.818 235.923 120.305 235.923ZM120.305 236.694C119.325 236.694 118.62 237.322 118.62 238.236C118.62 239.14 119.325 239.779 120.305 239.779C121.286 239.779 121.991 239.14 121.991 238.236C121.991 237.322 121.286 236.694 120.305 236.694ZM124.866 235.471H125.781V240.814H124.866V235.471ZM119.402 241.31H120.316V242.566H124.877V241.31H125.781V245.298H119.402V241.31ZM120.316 243.293V244.56H124.877V243.293H120.316ZM130.517 235.835C132.004 235.835 133.095 236.738 133.095 238.049C133.095 239.349 132.004 240.252 130.517 240.252C129.041 240.252 127.95 239.349 127.95 238.049C127.95 236.738 129.041 235.835 130.517 235.835ZM130.517 236.584C129.558 236.584 128.831 237.19 128.831 238.049C128.831 238.908 129.558 239.503 130.517 239.503C131.486 239.503 132.202 238.908 132.202 238.049C132.202 237.19 131.486 236.584 130.517 236.584ZM134.968 235.471H135.893V240.572H134.968V235.471ZM129.448 241.057H135.893V243.48H130.363V244.978H129.47V242.797H134.99V241.795H129.448V241.057ZM129.47 244.571H136.223V245.298H129.47V244.571ZM143.174 238.049H145.421V238.809H143.174V238.049ZM145.135 235.471H146.049V241.409H145.135V235.471ZM142.777 241.707C144.827 241.707 146.093 242.401 146.093 243.568C146.093 244.747 144.827 245.419 142.777 245.419C140.717 245.419 139.45 244.747 139.45 243.568C139.45 242.401 140.717 241.707 142.777 241.707ZM142.777 242.423C141.279 242.423 140.365 242.841 140.365 243.568C140.365 244.284 141.279 244.703 142.777 244.703C144.276 244.703 145.19 244.284 145.19 243.568C145.19 242.841 144.276 242.423 142.777 242.423ZM140.398 236.474H141.147V237.278C141.147 239.118 140.023 240.693 138.371 241.31L137.897 240.583C139.373 240.043 140.398 238.71 140.398 237.278V236.474ZM140.574 236.474H141.312V237.278C141.312 238.567 142.282 239.801 143.725 240.307L143.262 241.034C141.643 240.451 140.574 238.952 140.574 237.278V236.474ZM138.173 236.198H143.494V236.947H138.173V236.198ZM152.493 235.636C154.685 235.636 155.996 236.253 155.996 237.366C155.996 238.479 154.685 239.096 152.493 239.096C150.29 239.096 148.99 238.479 148.99 237.366C148.99 236.253 150.29 235.636 152.493 235.636ZM152.493 236.33C150.863 236.33 149.926 236.705 149.926 237.366C149.926 238.027 150.863 238.402 152.493 238.402C154.113 238.402 155.049 238.027 155.049 237.366C155.049 236.705 154.113 236.33 152.493 236.33ZM147.987 239.757H156.988V240.495H147.987V239.757ZM149.078 241.343H155.842V243.59H150.003V244.802H149.1V242.929H154.939V242.048H149.078V241.343ZM149.1 244.604H156.14V245.32H149.1V244.604ZM167.946 235.471H168.861V245.43H167.946V235.471ZM168.398 239.426H170.238V240.197H168.398V239.426ZM162.372 236.947H163.044V238.424C163.044 240.164 162.692 242.334 161.414 243.337L160.83 242.676C162.042 241.751 162.372 239.845 162.372 238.424V236.947ZM162.559 236.947H163.231V238.424C163.231 239.713 163.452 241.729 164.697 242.742L164.19 243.436C162.824 242.367 162.559 239.999 162.559 238.424V236.947ZM165.137 236.947H165.809V238.424C165.809 240.087 165.534 242.39 164.19 243.436L163.672 242.742C164.917 241.762 165.137 239.79 165.137 238.424V236.947ZM165.324 236.947H166.019V238.424C166.019 239.911 166.338 241.773 167.561 242.676L166.977 243.337C165.688 242.345 165.324 240.219 165.324 238.424V236.947ZM161.149 236.474H163.98V237.234H161.149V236.474ZM164.399 236.474H167.153V237.234H164.399V236.474ZM171.107 243.403H180.13V244.163H171.107V243.403ZM175.139 241.023H176.054V243.623H175.139V241.023ZM172.165 236.176H173.068V237.95H178.147V236.176H179.05V241.266H172.165V236.176ZM173.068 238.688V240.517H178.147V238.688H173.068ZM185.164 239.029H187.069V239.79H185.164V239.029ZM183.302 236.408H184.018V238.302C184.018 240.385 183.148 242.401 181.693 243.293L181.12 242.599C182.487 241.795 183.302 240.01 183.302 238.302V236.408ZM183.478 236.408H184.183V238.269C184.183 239.867 184.932 241.563 186.243 242.356L185.714 243.073C184.282 242.191 183.478 240.208 183.478 238.269V236.408ZM188.821 235.471H189.702V245.43H188.821V235.471ZM186.805 235.68H187.664V244.934H186.805V235.68ZM193.579 240.594H194.483V243.579H193.579V240.594ZM197.259 240.594H198.173V243.579H197.259V240.594ZM191.376 243.403H200.399V244.163H191.376V243.403ZM195.871 236.099C197.975 236.099 199.484 237.102 199.484 238.666C199.484 240.219 197.975 241.222 195.871 241.222C193.756 241.222 192.246 240.219 192.246 238.666C192.246 237.102 193.756 236.099 195.871 236.099ZM195.871 236.826C194.273 236.826 193.128 237.553 193.128 238.666C193.128 239.768 194.273 240.495 195.871 240.495C197.468 240.495 198.603 239.768 198.603 238.666C198.603 237.553 197.468 236.826 195.871 236.826ZM202.028 242.191L201.896 236.859H203.086L202.954 242.191H202.028ZM202.491 244.626C202.285 244.626 202.113 244.56 201.973 244.428C201.841 244.288 201.775 244.123 201.775 243.932C201.775 243.734 201.841 243.568 201.973 243.436C202.113 243.297 202.285 243.227 202.491 243.227C202.704 243.227 202.876 243.297 203.009 243.436C203.141 243.568 203.207 243.734 203.207 243.932C203.207 244.123 203.141 244.288 203.009 244.428C202.876 244.56 202.704 244.626 202.491 244.626Z" fill="#9E9E9E"/>
<path d="M100.592 220.563C99.7236 220.563 98.9467 220.415 98.2612 220.118C97.5872 219.82 97.0559 219.386 96.6675 218.815C96.2791 218.244 96.0734 217.553 96.0506 216.742H98.5011C98.5126 217.096 98.604 217.416 98.7753 217.701C98.9467 217.987 99.1866 218.215 99.4951 218.387C99.8035 218.547 100.169 218.627 100.592 218.627C100.946 218.627 101.26 218.569 101.534 218.455C101.809 218.33 102.02 218.158 102.168 217.941C102.317 217.724 102.391 217.467 102.391 217.17C102.391 216.827 102.306 216.542 102.134 216.313C101.963 216.073 101.729 215.873 101.432 215.713C101.146 215.553 100.809 215.411 100.42 215.285C100.043 215.148 99.6436 215.011 99.2209 214.874C98.2726 214.565 97.5529 214.154 97.0616 213.64C96.5704 213.126 96.3248 212.446 96.3248 211.601C96.3248 210.881 96.4961 210.264 96.8389 209.75C97.1816 209.236 97.6614 208.841 98.2784 208.567C98.8953 208.293 99.5979 208.156 100.386 208.156C101.197 208.156 101.911 208.299 102.528 208.584C103.145 208.859 103.631 209.258 103.985 209.784C104.339 210.31 104.528 210.926 104.55 211.635H102.066C102.054 211.372 101.98 211.126 101.843 210.898C101.706 210.658 101.512 210.469 101.26 210.332C101.009 210.184 100.712 210.11 100.369 210.11C100.061 210.098 99.7864 210.144 99.5465 210.247C99.3066 210.35 99.1123 210.504 98.9638 210.709C98.8267 210.904 98.7582 211.149 98.7582 211.446C98.7582 211.732 98.8267 211.972 98.9638 212.166C99.1009 212.36 99.2951 212.532 99.5465 212.68C99.8092 212.817 100.106 212.949 100.438 213.074C100.78 213.189 101.152 213.308 101.551 213.434C102.157 213.64 102.705 213.885 103.197 214.171C103.699 214.445 104.099 214.805 104.396 215.251C104.693 215.696 104.842 216.285 104.842 217.016C104.842 217.644 104.676 218.227 104.345 218.764C104.025 219.301 103.551 219.735 102.922 220.066C102.294 220.397 101.517 220.563 100.592 220.563ZM110.935 220.563C110.066 220.563 109.295 220.375 108.621 219.998C107.947 219.609 107.422 219.078 107.045 218.404C106.668 217.73 106.479 216.959 106.479 216.09C106.479 215.199 106.668 214.417 107.045 213.743C107.422 213.069 107.947 212.537 108.621 212.149C109.295 211.76 110.066 211.566 110.935 211.566C112.043 211.566 112.968 211.858 113.711 212.44C114.465 213.011 114.945 213.805 115.15 214.822H112.7C112.597 214.422 112.385 214.108 112.066 213.88C111.746 213.651 111.363 213.537 110.917 213.537C110.518 213.537 110.158 213.64 109.838 213.845C109.529 214.04 109.284 214.325 109.101 214.702C108.918 215.079 108.827 215.531 108.827 216.056C108.827 216.456 108.878 216.81 108.981 217.119C109.095 217.427 109.244 217.696 109.427 217.924C109.609 218.141 109.826 218.307 110.078 218.421C110.34 218.535 110.62 218.592 110.917 218.592C111.214 218.592 111.483 218.547 111.723 218.455C111.963 218.352 112.168 218.204 112.34 218.01C112.523 217.815 112.643 217.581 112.7 217.307H115.15C114.945 218.301 114.465 219.095 113.711 219.689C112.957 220.272 112.031 220.563 110.935 220.563ZM117.146 220.357V208.019H119.459V213.04C119.733 212.594 120.11 212.24 120.59 211.978C121.07 211.703 121.624 211.566 122.253 211.566C122.961 211.566 123.561 211.715 124.052 212.012C124.543 212.309 124.914 212.749 125.166 213.331C125.429 213.914 125.56 214.622 125.56 215.456V220.357H123.264V215.679C123.264 214.982 123.121 214.445 122.835 214.068C122.55 213.691 122.098 213.503 121.481 213.503C121.104 213.503 120.756 213.6 120.436 213.794C120.128 213.977 119.888 214.245 119.716 214.599C119.545 214.942 119.459 215.359 119.459 215.85V220.357H117.146ZM131.853 220.563C130.984 220.563 130.213 220.38 129.539 220.015C128.877 219.638 128.357 219.118 127.98 218.455C127.614 217.793 127.431 217.021 127.431 216.142C127.431 215.251 127.614 214.462 127.98 213.777C128.345 213.08 128.86 212.537 129.522 212.149C130.196 211.76 130.973 211.566 131.853 211.566C132.71 211.566 133.458 211.755 134.098 212.132C134.737 212.497 135.234 213 135.589 213.64C135.954 214.28 136.137 215.005 136.137 215.816C136.137 215.93 136.131 216.056 136.12 216.193C136.12 216.33 136.114 216.473 136.103 216.622H129.077V215.216H133.789C133.766 214.668 133.572 214.234 133.207 213.914C132.852 213.594 132.407 213.434 131.87 213.434C131.47 213.434 131.104 213.526 130.773 213.708C130.442 213.891 130.179 214.16 129.985 214.514C129.802 214.868 129.711 215.325 129.711 215.885V216.382C129.711 216.85 129.796 217.256 129.968 217.598C130.15 217.941 130.402 218.21 130.722 218.404C131.042 218.587 131.413 218.678 131.836 218.678C132.258 218.678 132.607 218.587 132.881 218.404C133.167 218.221 133.384 217.981 133.532 217.684H135.897C135.726 218.221 135.451 218.712 135.074 219.158C134.697 219.592 134.235 219.935 133.686 220.186C133.149 220.437 132.538 220.563 131.853 220.563ZM141.87 220.563C141.082 220.563 140.374 220.369 139.745 219.98C139.128 219.592 138.637 219.061 138.272 218.387C137.917 217.701 137.74 216.924 137.74 216.056C137.74 215.188 137.917 214.417 138.272 213.743C138.637 213.069 139.134 212.537 139.762 212.149C140.402 211.76 141.116 211.566 141.905 211.566C142.533 211.566 143.081 211.68 143.55 211.909C144.018 212.137 144.389 212.463 144.664 212.886V208.019H146.977V220.357H144.921L144.681 219.175C144.498 219.415 144.281 219.643 144.03 219.86C143.778 220.078 143.475 220.249 143.121 220.375C142.767 220.5 142.35 220.563 141.87 220.563ZM142.402 218.541C142.87 218.541 143.276 218.438 143.618 218.232C143.972 218.015 144.247 217.724 144.441 217.358C144.635 216.981 144.732 216.547 144.732 216.056C144.732 215.565 144.635 215.136 144.441 214.771C144.247 214.394 143.972 214.102 143.618 213.897C143.264 213.68 142.859 213.571 142.402 213.571C141.967 213.571 141.573 213.68 141.219 213.897C140.865 214.102 140.585 214.394 140.379 214.771C140.185 215.148 140.088 215.576 140.088 216.056C140.088 216.536 140.185 216.964 140.379 217.341C140.585 217.718 140.865 218.015 141.219 218.232C141.573 218.438 141.967 218.541 142.402 218.541ZM152.448 220.563C151.752 220.563 151.152 220.42 150.649 220.135C150.158 219.838 149.781 219.403 149.518 218.832C149.255 218.25 149.124 217.541 149.124 216.707V211.772H151.437V216.467C151.437 217.176 151.58 217.713 151.866 218.078C152.151 218.432 152.603 218.609 153.22 218.609C153.608 218.609 153.951 218.524 154.248 218.352C154.556 218.17 154.796 217.907 154.968 217.564C155.139 217.221 155.225 216.804 155.225 216.313V211.772H157.538V220.357H155.499L155.327 218.952C155.065 219.432 154.688 219.82 154.196 220.118C153.705 220.415 153.122 220.563 152.448 220.563ZM159.804 220.357V208.019H162.117V220.357H159.804ZM168.503 220.563C167.635 220.563 166.863 220.38 166.189 220.015C165.527 219.638 165.007 219.118 164.63 218.455C164.264 217.793 164.081 217.021 164.081 216.142C164.081 215.251 164.264 214.462 164.63 213.777C164.995 213.08 165.51 212.537 166.172 212.149C166.846 211.76 167.623 211.566 168.503 211.566C169.36 211.566 170.108 211.755 170.748 212.132C171.387 212.497 171.884 213 172.239 213.64C172.604 214.28 172.787 215.005 172.787 215.816C172.787 215.93 172.781 216.056 172.77 216.193C172.77 216.33 172.764 216.473 172.753 216.622H165.727V215.216H170.439C170.416 214.668 170.222 214.234 169.857 213.914C169.502 213.594 169.057 213.434 168.52 213.434C168.12 213.434 167.754 213.526 167.423 213.708C167.092 213.891 166.829 214.16 166.635 214.514C166.452 214.868 166.361 215.325 166.361 215.885V216.382C166.361 216.85 166.446 217.256 166.618 217.598C166.801 217.941 167.052 218.21 167.372 218.404C167.692 218.587 168.063 218.678 168.486 218.678C168.908 218.678 169.257 218.587 169.531 218.404C169.817 218.221 170.034 217.981 170.182 217.684H172.547C172.376 218.221 172.102 218.712 171.725 219.158C171.348 219.592 170.885 219.935 170.336 220.186C169.799 220.437 169.188 220.563 168.503 220.563Z" fill="black"/>
<path d="M136.626 164.841C175.69 164.841 207.358 136.133 207.358 100.719C207.358 65.3059 175.69 36.5977 136.626 36.5977C97.5622 36.5977 65.8945 65.3059 65.8945 100.719C65.8945 136.133 97.5622 164.841 136.626 164.841Z" fill="url(#paint0_linear_147_3905)"/>
<path fill-rule="evenodd" clip-rule="evenodd" d="M148.999 137.121C150.013 134.637 153.056 133.368 155.796 134.287L184.583 143.944C188.516 145.263 191.845 147.58 193.952 150.48C196.059 153.379 197.118 157.182 195.582 160.945C194.046 164.708 190.512 166.971 186.831 167.93C183.149 168.889 178.957 168.685 175.022 167.365L106.622 144.42C103.882 143.501 102.483 140.742 103.497 138.258C104.511 135.774 107.554 134.505 110.294 135.424L178.694 158.37C180.735 159.054 182.611 159.05 183.908 158.711C185.208 158.373 185.568 157.84 185.659 157.617C185.75 157.394 185.86 156.779 185.116 155.756C184.374 154.735 182.953 153.625 180.911 152.94L152.195 142.302C149.455 141.383 147.985 139.605 148.999 137.121Z" fill="url(#paint1_linear_147_3905)"/>
<path fill-rule="evenodd" clip-rule="evenodd" d="M183.369 74.1387C184.065 71.7799 186.422 70.1394 189.116 70.1394H213.178C216.464 70.1394 219.127 72.554 219.127 75.5326C219.127 78.5113 216.464 80.9259 213.178 80.9259H193.682L186.741 104.445C185.892 107.323 182.631 109.031 179.457 108.261C176.283 107.492 174.398 104.535 175.247 101.658L183.369 74.1387Z" fill="url(#paint2_linear_147_3905)"/>
<path fill-rule="evenodd" clip-rule="evenodd" d="M202.793 32.9042C203.955 32.3032 205.627 32.9767 206.528 34.4085C206.544 34.4333 206.559 34.4582 206.574 34.4832C207.008 34.2185 207.656 34.1323 208.315 34.2957C209.339 34.5496 210.001 35.3101 209.795 35.9945C209.589 36.6788 208.591 37.0277 207.567 36.7738C207.386 36.7289 207.217 36.6683 207.061 36.595C206.968 37.246 206.627 37.7939 206.056 38.0892C204.894 38.6902 203.221 38.0166 202.32 36.5848C201.419 35.153 201.631 33.5051 202.793 32.9042Z" fill="url(#paint3_linear_147_3905)"/>
<path fill-rule="evenodd" clip-rule="evenodd" d="M110.014 25.1966C109.735 26.8256 108.438 27.9957 107.116 27.8101C106.337 27.7008 105.724 27.1458 105.408 26.3754C105.265 26.5508 105.084 26.7149 104.87 26.8568C104.014 27.4252 102.944 27.4218 102.482 26.8493C102.02 26.2768 102.34 25.3519 103.197 24.7835C103.877 24.3324 104.691 24.2415 105.228 24.5094C105.512 22.8883 106.806 21.7259 108.124 21.911C109.446 22.0966 110.292 23.5676 110.014 25.1966Z" fill="url(#paint4_linear_147_3905)"/>
<path d="M57.2003 109.632C57.4797 108.259 59.4411 108.259 59.7204 109.632L60.6176 114.04C60.7133 114.51 61.0626 114.888 61.5238 115.02L66.0369 116.312C67.2796 116.668 67.2796 118.428 66.0369 118.784L61.5238 120.076C61.0626 120.208 60.7133 120.586 60.6176 121.056L59.7204 125.464C59.4411 126.837 57.4797 126.837 57.2003 125.464L56.3031 121.056C56.2075 120.586 55.8581 120.208 55.397 120.076L50.8838 118.784C49.6412 118.428 49.6412 116.668 50.8838 116.312L55.397 115.02C55.8581 114.888 56.2075 114.51 56.3031 114.04L57.2003 109.632Z" fill="url(#paint5_linear_147_3905)"/>
<path d="M182.88 157.976C183.159 156.604 185.121 156.604 185.4 157.976L186.297 162.385C186.393 162.855 186.742 163.232 187.203 163.364L191.717 164.656C192.959 165.012 192.959 166.773 191.717 167.129L187.203 168.421C186.742 168.553 186.393 168.931 186.297 169.401L185.4 173.809C185.121 175.182 183.159 175.182 182.88 173.809L181.983 169.401C181.887 168.931 181.538 168.553 181.077 168.421L176.563 167.129C175.321 166.773 175.321 165.012 176.563 164.656L181.077 163.364C181.538 163.232 181.887 162.855 181.983 162.385L182.88 157.976Z" fill="url(#paint6_linear_147_3905)"/>
<path fill-rule="evenodd" clip-rule="evenodd" d="M74.6617 74.5598C76.0245 74.5598 77.1293 73.2494 77.1293 71.633C77.1293 70.0166 76.0245 68.7063 74.6617 68.7063C73.2988 68.7063 72.194 70.0166 72.194 71.633C72.194 73.2494 73.2988 74.5598 74.6617 74.5598ZM74.6617 76.7548C77.0467 76.7548 78.9801 74.4617 78.9801 71.633C78.9801 68.8043 77.0467 66.5112 74.6617 66.5112C72.2767 66.5112 70.3433 68.8043 70.3433 71.633C70.3433 74.4617 72.2767 76.7548 74.6617 76.7548Z" fill="url(#paint7_linear_147_3905)"/>
<path d="M64.6858 149.784C64.4998 148.919 65.1757 148.136 65.9004 148.378L70.9066 150.046C71.6291 150.287 71.8583 151.366 71.3196 151.989L67.5982 156.297C67.0594 156.921 66.156 156.622 65.9706 155.76L64.6858 149.784Z" fill="url(#paint8_linear_147_3905)"/>
<path d="M193.059 129.631C193.787 129.412 194.439 130.207 194.235 131.064L192.822 136.999C192.617 137.86 191.704 138.138 191.18 137.499L187.553 133.08C187.029 132.442 187.288 131.367 188.018 131.147L193.059 129.631Z" fill="url(#paint9_linear_147_3905)"/>
<path fill-rule="evenodd" clip-rule="evenodd" d="M176.846 68.2776C177.941 68.2776 178.829 67.2249 178.829 65.9264C178.829 64.6279 177.941 63.5752 176.846 63.5752C175.751 63.5752 174.864 64.6279 174.864 65.9264C174.864 67.2249 175.751 68.2776 176.846 68.2776ZM176.846 70.041C178.762 70.041 180.315 68.1988 180.315 65.9264C180.315 63.654 178.762 61.8118 176.846 61.8118C174.93 61.8118 173.377 63.654 173.377 65.9264C173.377 68.1988 174.93 70.041 176.846 70.041Z" fill="url(#paint10_linear_147_3905)"/>
<path d="M99.2835 35.0247C98.3091 39.6477 101.466 49.3617 106.338 50.1322C115.353 51.5579 113.697 39.0533 108.319 41.4034C101.919 44.2003 108.324 56.1642 117.094 58.8609" stroke="#5EC0D6" stroke-width="0.61203" stroke-linecap="round" stroke-linejoin="round" stroke-dasharray="2.45 2.45"/>
<path d="M191.853 53.1718C197.211 65.5401 183.015 78.7447 179.085 81.1911" stroke="#5EC0D6" stroke-width="0.61203" stroke-linecap="round" stroke-linejoin="round" stroke-dasharray="2.45 2.45"/>
<path d="M121.333 178.48C128.451 178.48 134.221 173.249 134.221 166.797C134.221 160.344 128.451 155.113 121.333 155.113C114.215 155.113 108.444 160.344 108.444 166.797C108.444 173.249 114.215 178.48 121.333 178.48Z" fill="#6FCFE4"/>
<path d="M132.802 166.852C136.378 166.852 139.277 164.224 139.277 160.983C139.277 157.741 136.378 155.113 132.802 155.113C129.226 155.113 126.327 157.741 126.327 160.983C126.327 164.224 129.226 166.852 132.802 166.852Z" fill="url(#paint11_linear_147_3905)"/>
<path d="M66.6574 144.631C61.3956 141.688 61.3169 133.266 65.8034 130.904L97.6617 115.713C102.252 113.063 109.328 112.721 114.559 114.687C116.052 115.248 117.571 115.788 119.159 115.933L176.509 121.176C177.875 121.301 179.295 121.6 180.23 122.604C183.31 125.912 182.539 132.604 177.958 135.249L123.456 166.13C118.185 169.172 109.64 169.172 104.369 166.13L66.6574 144.631Z" fill="#71A8EF"/>
<g filter="url(#filter4_d_147_3905)">
<rect x="0.408999" width="85.0401" height="64.1641" rx="10.7833" transform="matrix(0.866043 -0.49997 0.866043 0.49997 57.1666 134.842)" fill="url(#paint12_linear_147_3905)" stroke="url(#paint13_linear_147_3905)" stroke-width="0.472262"/>
</g>
<g filter="url(#filter5_d_147_3905)">
<path d="M68.2769 121.496L115.804 94.0589C121.402 90.8277 130.476 90.8277 136.074 94.0589L175.456 116.794L121.848 147.742C119.609 149.035 115.979 149.035 113.74 147.742L68.2769 121.496Z" fill="#5ECDCD"/>
</g>
<g filter="url(#filter6_b_147_3905)">
<path d="M68.211 122.975C64.2996 120.787 64.2411 114.526 67.5762 112.771L121.779 80.8224C125.697 78.5605 132.05 78.5605 135.968 80.8224L180.538 106.235C184.166 108.048 184.456 115.587 180.538 117.849L125.93 149.864C122.012 152.126 115.2 150.833 111.282 148.571L68.211 122.975Z" fill="white" fill-opacity="0.5"/>
</g>
<g filter="url(#filter7_b_147_3905)">
<rect x="0.304038" width="77.2917" height="66.6836" rx="8.01601" transform="matrix(0.866043 -0.49997 0.866043 0.49997 61.9069 115.475)" fill="white" fill-opacity="0.5" stroke="url(#paint14_linear_147_3905)" stroke-width="0.351066"/>
</g>
<g filter="url(#filter8_b_147_3905)">
<path d="M68.5544 103.658C66.6782 102.608 66.6502 99.0418 68.2499 98.1998L70.1502 97.2936C72.0295 96.2087 75.0766 96.5452 76.956 97.6302L87.5671 104.051C89.3072 104.921 89.4464 107.997 87.5671 109.082L86.3694 109.74C84.49 110.825 81.2226 110.971 79.3433 109.886L68.5544 103.658Z" fill="#8CDBFF" fill-opacity="0.46"/>
</g>
<g filter="url(#filter9_b_147_3905)">
<rect x="0.145839" width="8.69291" height="20.4555" rx="3.84506" transform="matrix(0.866043 -0.49997 0.866043 0.49997 65.1714 99.8134)" fill="#8CDBFF" stroke="url(#paint15_linear_147_3905)" stroke-width="0.168397"/>
</g>
<g filter="url(#filter10_b_147_3905)">
<path d="M110.29 81.2162C108.414 80.1668 108.386 76.6004 109.986 75.7584L111.886 74.8522C113.765 73.7673 116.812 74.1038 118.692 75.1888L129.303 81.6096C131.043 82.4797 131.182 85.5557 129.303 86.6407L128.105 87.2982C126.226 88.3832 122.958 88.5296 121.079 87.4446L110.29 81.2162Z" fill="#8CDBFF" fill-opacity="0.46"/>
</g>
<g filter="url(#filter11_b_147_3905)">
<rect x="0.145839" width="8.69291" height="20.4555" rx="3.84506" transform="matrix(0.866043 -0.49997 0.866043 0.49997 106.907 77.3722)" fill="#8CDBFF" stroke="url(#paint16_linear_147_3905)" stroke-width="0.168397"/>
</g>
<g filter="url(#filter12_i_147_3905)">
<path d="M107.097 133.387L119.39 126.867" stroke="#8EE2F4" stroke-width="4.82376" stroke-linecap="round" stroke-linejoin="round"/>
</g>
<g filter="url(#filter13_i_147_3905)">
<path d="M88.251 120.174L100.544 113.654" stroke="#8CDBFF" stroke-width="4.82376" stroke-linecap="round" stroke-linejoin="round"/>
<path d="M97.3066 127.395L109.6 120.875" stroke="#8CDBFF" stroke-width="4.82376" stroke-linecap="round" stroke-linejoin="round"/>
</g>
<g filter="url(#filter14_f_147_3905)">
<path d="M158.364 104.209L167.819 98.2197C175.959 99.7888 181.32 107.385 183.019 111.144C182.054 111.526 178.61 114.39 177.04 115.619C175.47 116.848 172.461 116.325 171.152 115.91C168.277 114.179 161.967 110.445 159.73 109.361C157.492 108.278 157.887 105.475 158.364 104.209Z" fill="#8ECDF4"/>
</g>
<g filter="url(#filter15_f_147_3905)">
<path d="M138.48 90.9866L147.252 86.481C155.896 88.0574 161.671 95.9726 163.478 99.7332C162.453 100.115 159.987 101.185 158.321 102.413C156.655 103.641 153.459 103.115 152.07 102.699C149.015 100.965 142.312 97.2257 139.935 96.14C137.557 95.0543 137.974 92.252 138.48 90.9866Z" fill="#8ECDF4"/>
</g>
<g filter="url(#filter16_d_147_3905)">
<g filter="url(#filter17_b_147_3905)">
<path d="M117.663 104.764C115.802 103.688 115.818 100.685 117.429 99.8662L128.866 94.6132C130.761 93.5554 133.807 93.5992 135.671 94.711L146.868 100.233C148.596 101.128 148.472 104.122 146.577 105.18L135.431 111.403C133.536 112.461 130.489 112.417 128.626 111.305L117.663 104.764Z" fill="white" fill-opacity="0.5"/>
</g>
<g filter="url(#filter18_b_147_3905)">
<rect x="0.145824" y="0.00209682" width="20.4555" height="20.4555" rx="3.84506" transform="matrix(0.873142 -0.487466 0.858765 0.51237 114.331 101.165)" fill="white" fill-opacity="0.5" stroke="url(#paint17_linear_147_3905)" stroke-width="0.168397"/>
</g>
</g>
<g filter="url(#filter19_b_147_3905)">
<path d="M137.579 93.1417C135.718 92.0654 135.733 89.0623 137.345 88.2434L148.781 82.9904C150.676 81.9326 153.723 81.9764 155.586 83.0882L166.784 88.6105C168.511 89.5055 168.387 92.4996 166.492 93.5574L155.346 99.7801C153.452 100.838 150.405 100.794 148.541 99.6823L137.579 93.1417Z" fill="white" fill-opacity="0.5"/>
</g>
<g filter="url(#filter20_b_147_3905)">
<rect x="0.145824" y="0.00209682" width="20.4555" height="20.4555" rx="3.84506" transform="matrix(0.873142 -0.487466 0.858765 0.51237 134.245 89.5426)" fill="white" fill-opacity="0.5" stroke="url(#paint18_linear_147_3905)" stroke-width="0.168397"/>
</g>
<g filter="url(#filter21_d_147_3905)">
<g filter="url(#filter22_b_147_3905)">
<path d="M138.593 116.975C136.732 115.898 136.747 112.895 138.359 112.076L149.796 106.823C151.69 105.766 154.737 105.809 156.601 106.921L167.798 112.444C169.525 113.339 169.401 116.333 167.507 117.39L156.361 123.613C154.466 124.671 151.419 124.627 149.556 123.515L138.593 116.975Z" fill="white" fill-opacity="0.5"/>
</g>
<g filter="url(#filter23_b_147_3905)">
<rect x="0.145824" y="0.00209682" width="20.4555" height="20.4555" rx="3.84506" transform="matrix(0.873142 -0.487466 0.858765 0.51237 135.259 113.375)" fill="white" fill-opacity="0.5" stroke="url(#paint19_linear_147_3905)" stroke-width="0.168397"/>
</g>
</g>
<g filter="url(#filter24_b_147_3905)">
<path d="M158.508 105.352C156.647 104.276 156.662 101.272 158.274 100.454L169.711 95.2006C171.605 94.1428 174.652 94.1866 176.516 95.2984L187.713 100.821C189.441 101.716 189.316 104.71 187.422 105.768L176.276 111.99C174.381 113.048 171.334 113.004 169.471 111.892L158.508 105.352Z" fill="white" fill-opacity="0.5"/>
</g>
<g filter="url(#filter25_b_147_3905)">
<rect x="0.145824" y="0.00209682" width="20.4555" height="20.4555" rx="3.84506" transform="matrix(0.873142 -0.487466 0.858765 0.51237 155.174 101.753)" fill="white" fill-opacity="0.5" stroke="url(#paint20_linear_147_3905)" stroke-width="0.168397"/>
</g>
<g filter="url(#filter26_i_147_3905)">
<path d="M169.297 103.699L176.806 99.3642" stroke="#8ECDF4" stroke-width="2.18823" stroke-linecap="round" stroke-linejoin="round"/>
<path d="M176.826 103.677L169.327 99.3474" stroke="#8ECDF4" stroke-width="2.18823" stroke-linecap="round" stroke-linejoin="round"/>
</g>
<g filter="url(#filter27_i_147_3905)">
<path d="M152.068 93.6272L152.078 84.9625" stroke="#8ECDF4" stroke-width="2.18823" stroke-linecap="round" stroke-linejoin="round"/>
<path d="M159.578 89.2919L144.569 89.2979" stroke="#8ECDF4" stroke-width="2.18823" stroke-linecap="round" stroke-linejoin="round"/>
</g>
<g filter="url(#filter28_i_147_3905)">
<path d="M150.022 114.535L157.532 110.2" stroke="#8CDBFF" stroke-width="2.18823" stroke-linecap="round" stroke-linejoin="round"/>
</g>
<g filter="url(#filter29_d_147_3905)">
<g filter="url(#filter30_b_147_3905)">
<path d="M95.6424 116.98C93.7814 115.904 93.7966 112.901 95.4083 112.082L106.845 106.829C108.74 105.771 111.786 105.815 113.65 106.927L124.847 112.449C126.575 113.344 126.451 116.338 124.556 117.396L113.41 123.619C111.515 124.677 108.468 124.633 106.605 123.521L95.6424 116.98Z" fill="white" fill-opacity="0.5"/>
</g>
<g filter="url(#filter31_b_147_3905)">
<rect x="0.145824" y="0.00209682" width="20.4555" height="20.4555" rx="3.84506" transform="matrix(0.873142 -0.487466 0.858765 0.51237 92.3097 113.381)" fill="white" fill-opacity="0.5" stroke="url(#paint21_linear_147_3905)" stroke-width="0.168397"/>
</g>
</g>
<g filter="url(#filter32_d_147_3905)">
<g filter="url(#filter33_b_147_3905)">
<path d="M116.572 129.191C114.711 128.115 114.726 125.111 116.338 124.292L127.775 119.039C129.669 117.982 132.716 118.025 134.58 119.137L145.777 124.66C147.504 125.555 147.38 128.549 145.486 129.607L134.34 135.829C132.445 136.887 129.398 136.843 127.535 135.731L116.572 129.191Z" fill="white" fill-opacity="0.5"/>
</g>
<g filter="url(#filter34_b_147_3905)">
<rect x="0.145824" y="0.00209682" width="20.4555" height="20.4555" rx="3.84506" transform="matrix(0.873142 -0.487466 0.858765 0.51237 113.238 125.592)" fill="white" fill-opacity="0.5" stroke="url(#paint22_linear_147_3905)" stroke-width="0.168397"/>
</g>
</g>
</g>
<defs>
<filter id="filter0_f_147_3905" x="-46.3284" y="122.672" width="177.381" height="176.189" filterUnits="userSpaceOnUse" color-interpolation-filters="sRGB">
<feFlood flood-opacity="0" result="BackgroundImageFix"/>
<feBlend mode="normal" in="SourceGraphic" in2="BackgroundImageFix" result="shape"/>
<feGaussianBlur stdDeviation="1.66422" result="effect1_foregroundBlur_147_3905"/>
</filter>
<filter id="filter1_f_147_3905" x="181.212" y="150.559" width="63.1438" height="63.144" filterUnits="userSpaceOnUse" color-interpolation-filters="sRGB">
<feFlood flood-opacity="0" result="BackgroundImageFix"/>
<feBlend mode="normal" in="SourceGraphic" in2="BackgroundImageFix" result="shape"/>
<feGaussianBlur stdDeviation="1.22406" result="effect1_foregroundBlur_147_3905"/>
</filter>
<filter id="filter2_f_147_3905" x="189.945" y="-0.522055" width="57.2785" height="57.2787" filterUnits="userSpaceOnUse" color-interpolation-filters="sRGB">
<feFlood flood-opacity="0" result="BackgroundImageFix"/>
<feBlend mode="normal" in="SourceGraphic" in2="BackgroundImageFix" result="shape"/>
<feGaussianBlur stdDeviation="0.580363" result="effect1_foregroundBlur_147_3905"/>
</filter>
<filter id="filter3_f_147_3905" x="9.67155" y="-4.45638" width="122.796" height="122.796" filterUnits="userSpaceOnUse" color-interpolation-filters="sRGB">
<feFlood flood-opacity="0" result="BackgroundImageFix"/>
<feBlend mode="normal" in="SourceGraphic" in2="BackgroundImageFix" result="shape"/>
<feGaussianBlur stdDeviation="1.66422" result="effect1_foregroundBlur_147_3905"/>
</filter>
<filter id="filter4_d_147_3905" x="50.1085" y="95.1111" width="144.042" height="96.9507" filterUnits="userSpaceOnUse" color-interpolation-filters="sRGB">
<feFlood flood-opacity="0" result="BackgroundImageFix"/>
<feColorMatrix in="SourceAlpha" type="matrix" values="0 0 0 0 0 0 0 0 0 0 0 0 0 0 0 0 0 0 127 0" result="hardAlpha"/>
<feOffset dy="15.7421"/>
<feGaussianBlur stdDeviation="6.29683"/>
<feComposite in2="hardAlpha" operator="out"/>
<feColorMatrix type="matrix" values="0 0 0 0 0.496875 0 0 0 0 0.816765 0 0 0 0 0.965007 0 0 0 0.5 0"/>
<feBlend mode="normal" in2="BackgroundImageFix" result="effect1_dropShadow_147_3905"/>
<feBlend mode="normal" in="SourceGraphic" in2="effect1_dropShadow_147_3905" result="shape"/>
</filter>
<filter id="filter5_d_147_3905" x="63.1279" y="90.4653" width="117.477" height="67.3739" filterUnits="userSpaceOnUse" color-interpolation-filters="sRGB">
<feFlood flood-opacity="0" result="BackgroundImageFix"/>
<feColorMatrix in="SourceAlpha" type="matrix" values="0 0 0 0 0 0 0 0 0 0 0 0 0 0 0 0 0 0 127 0" result="hardAlpha"/>
<feOffset dy="3.97875"/>
<feGaussianBlur stdDeviation="2.57448"/>
<feComposite in2="hardAlpha" operator="out"/>
<feColorMatrix type="matrix" values="0 0 0 0 0.556863 0 0 0 0 0.896863 0 0 0 0 0.956863 0 0 0 1 0"/>
<feBlend mode="normal" in2="BackgroundImageFix" result="effect1_dropShadow_147_3905"/>
<feBlend mode="normal" in="SourceGraphic" in2="effect1_dropShadow_147_3905" result="shape"/>
</filter>
<filter id="filter6_b_147_3905" x="60.489" y="74.4451" width="127.561" height="81.2814" filterUnits="userSpaceOnUse" color-interpolation-filters="sRGB">
<feFlood flood-opacity="0" result="BackgroundImageFix"/>
<feGaussianBlur in="BackgroundImageFix" stdDeviation="2.34044"/>
<feComposite in2="SourceAlpha" operator="in" result="effect1_backgroundBlur_147_3905"/>
<feBlend mode="normal" in="SourceGraphic" in2="effect1_backgroundBlur_147_3905" result="shape"/>
</filter>
<filter id="filter7_b_147_3905" x="61.3411" y="74.2222" width="126.347" height="76.8979" filterUnits="userSpaceOnUse" color-interpolation-filters="sRGB">
<feFlood flood-opacity="0" result="BackgroundImageFix"/>
<feGaussianBlur in="BackgroundImageFix" stdDeviation="2.34044"/>
<feComposite in2="SourceAlpha" operator="in" result="effect1_backgroundBlur_147_3905"/>
<feBlend mode="normal" in="SourceGraphic" in2="effect1_backgroundBlur_147_3905" result="shape"/>
</filter>
<filter id="filter8_b_147_3905" x="64.8504" y="94.3836" width="26.3197" height="18.492" filterUnits="userSpaceOnUse" color-interpolation-filters="sRGB">
<feFlood flood-opacity="0" result="BackgroundImageFix"/>
<feGaussianBlur in="BackgroundImageFix" stdDeviation="1.12264"/>
<feComposite in2="SourceAlpha" operator="in" result="effect1_backgroundBlur_147_3905"/>
<feBlend mode="normal" in="SourceGraphic" in2="effect1_backgroundBlur_147_3905" result="shape"/>
</filter>
<filter id="filter9_b_147_3905" x="64.8997" y="94.2156" width="26.0394" height="16.9308" filterUnits="userSpaceOnUse" color-interpolation-filters="sRGB">
<feFlood flood-opacity="0" result="BackgroundImageFix"/>
<feGaussianBlur in="BackgroundImageFix" stdDeviation="1.12264"/>
<feComposite in2="SourceAlpha" operator="in" result="effect1_backgroundBlur_147_3905"/>
<feBlend mode="normal" in="SourceGraphic" in2="effect1_backgroundBlur_147_3905" result="shape"/>
</filter>
<filter id="filter10_b_147_3905" x="106.586" y="71.9422" width="26.3197" height="18.492" filterUnits="userSpaceOnUse" color-interpolation-filters="sRGB">
<feFlood flood-opacity="0" result="BackgroundImageFix"/>
<feGaussianBlur in="BackgroundImageFix" stdDeviation="1.12264"/>
<feComposite in2="SourceAlpha" operator="in" result="effect1_backgroundBlur_147_3905"/>
<feBlend mode="normal" in="SourceGraphic" in2="effect1_backgroundBlur_147_3905" result="shape"/>
</filter>
<filter id="filter11_b_147_3905" x="106.636" y="71.7745" width="26.0394" height="16.9308" filterUnits="userSpaceOnUse" color-interpolation-filters="sRGB">
<feFlood flood-opacity="0" result="BackgroundImageFix"/>
<feGaussianBlur in="BackgroundImageFix" stdDeviation="1.12264"/>
<feComposite in2="SourceAlpha" operator="in" result="effect1_backgroundBlur_147_3905"/>
<feBlend mode="normal" in="SourceGraphic" in2="effect1_backgroundBlur_147_3905" result="shape"/>
</filter>
<filter id="filter12_i_147_3905" x="104.252" y="124.985" width="17.9839" height="10.5475" filterUnits="userSpaceOnUse" color-interpolation-filters="sRGB">
<feFlood flood-opacity="0" result="BackgroundImageFix"/>
<feBlend mode="normal" in="SourceGraphic" in2="BackgroundImageFix" result="shape"/>
<feColorMatrix in="SourceAlpha" type="matrix" values="0 0 0 0 0 0 0 0 0 0 0 0 0 0 0 0 0 0 127 0" result="hardAlpha"/>
<feOffset dy="0.615536"/>
<feGaussianBlur stdDeviation="0.132389"/>
<feComposite in2="hardAlpha" operator="arithmetic" k2="-1" k3="1"/>
<feColorMatrix type="matrix" values="0 0 0 0 1 0 0 0 0 1 0 0 0 0 1 0 0 0 1 0"/>
<feBlend mode="normal" in2="shape" result="effect1_innerShadow_147_3905"/>
</filter>
<filter id="filter13_i_147_3905" x="85.4058" y="111.772" width="27.0396" height="17.7684" filterUnits="userSpaceOnUse" color-interpolation-filters="sRGB">
<feFlood flood-opacity="0" result="BackgroundImageFix"/>
<feBlend mode="normal" in="SourceGraphic" in2="BackgroundImageFix" result="shape"/>
<feColorMatrix in="SourceAlpha" type="matrix" values="0 0 0 0 0 0 0 0 0 0 0 0 0 0 0 0 0 0 127 0" result="hardAlpha"/>
<feOffset dy="0.615536"/>
<feGaussianBlur stdDeviation="0.132389"/>
<feComposite in2="hardAlpha" operator="arithmetic" k2="-1" k3="1"/>
<feColorMatrix type="matrix" values="0 0 0 0 1 0 0 0 0 1 0 0 0 0 1 0 0 0 1 0"/>
<feBlend mode="normal" in2="shape" result="effect1_innerShadow_147_3905"/>
</filter>
<filter id="filter14_f_147_3905" x="154.99" y="95.2157" width="31.033" height="24.1724" filterUnits="userSpaceOnUse" color-interpolation-filters="sRGB">
<feFlood flood-opacity="0" result="BackgroundImageFix"/>
<feBlend mode="normal" in="SourceGraphic" in2="BackgroundImageFix" result="shape"/>
<feGaussianBlur stdDeviation="1.50203" result="effect1_foregroundBlur_147_3905"/>
</filter>
<filter id="filter15_f_147_3905" x="135.085" y="83.4769" width="31.3968" height="22.703" filterUnits="userSpaceOnUse" color-interpolation-filters="sRGB">
<feFlood flood-opacity="0" result="BackgroundImageFix"/>
<feBlend mode="normal" in="SourceGraphic" in2="BackgroundImageFix" result="shape"/>
<feGaussianBlur stdDeviation="1.50203" result="effect1_foregroundBlur_147_3905"/>
</filter>
<filter id="filter16_d_147_3905" x="110.971" y="91.7103" width="42.387" height="30.5235" filterUnits="userSpaceOnUse" color-interpolation-filters="sRGB">
<feFlood flood-opacity="0" result="BackgroundImageFix"/>
<feColorMatrix in="SourceAlpha" type="matrix" values="0 0 0 0 0 0 0 0 0 0 0 0 0 0 0 0 0 0 127 0" result="hardAlpha"/>
<feOffset dy="4.7932"/>
<feGaussianBlur stdDeviation="2.63607"/>
<feComposite in2="hardAlpha" operator="out"/>
<feColorMatrix type="matrix" values="0 0 0 0 0.556863 0 0 0 0 0.896863 0 0 0 0 0.956863 0 0 0 1 0"/>
<feBlend mode="normal" in2="BackgroundImageFix" result="effect1_dropShadow_147_3905"/>
<feBlend mode="normal" in="SourceGraphic" in2="effect1_dropShadow_147_3905" result="shape"/>
</filter>
<filter id="filter17_b_147_3905" x="113.997" y="91.6024" width="36.3333" height="22.8114" filterUnits="userSpaceOnUse" color-interpolation-filters="sRGB">
<feFlood flood-opacity="0" result="BackgroundImageFix"/>
<feGaussianBlur in="BackgroundImageFix" stdDeviation="1.12264"/>
<feComposite in2="SourceAlpha" operator="in" result="effect1_backgroundBlur_147_3905"/>
<feBlend mode="normal" in="SourceGraphic" in2="effect1_backgroundBlur_147_3905" result="shape"/>
</filter>
<filter id="filter18_b_147_3905" x="114.062" y="89.9439" width="36.223" height="22.8114" filterUnits="userSpaceOnUse" color-interpolation-filters="sRGB">
<feFlood flood-opacity="0" result="BackgroundImageFix"/>
<feGaussianBlur in="BackgroundImageFix" stdDeviation="1.12264"/>
<feComposite in2="SourceAlpha" operator="in" result="effect1_backgroundBlur_147_3905"/>
<feBlend mode="normal" in="SourceGraphic" in2="effect1_backgroundBlur_147_3905" result="shape"/>
</filter>
<filter id="filter19_b_147_3905" x="133.913" y="79.9796" width="36.3333" height="22.8114" filterUnits="userSpaceOnUse" color-interpolation-filters="sRGB">
<feFlood flood-opacity="0" result="BackgroundImageFix"/>
<feGaussianBlur in="BackgroundImageFix" stdDeviation="1.12264"/>
<feComposite in2="SourceAlpha" operator="in" result="effect1_backgroundBlur_147_3905"/>
<feBlend mode="normal" in="SourceGraphic" in2="effect1_backgroundBlur_147_3905" result="shape"/>
</filter>
<filter id="filter20_b_147_3905" x="133.976" y="78.3216" width="36.223" height="22.8114" filterUnits="userSpaceOnUse" color-interpolation-filters="sRGB">
<feFlood flood-opacity="0" result="BackgroundImageFix"/>
<feGaussianBlur in="BackgroundImageFix" stdDeviation="1.12264"/>
<feComposite in2="SourceAlpha" operator="in" result="effect1_backgroundBlur_147_3905"/>
<feBlend mode="normal" in="SourceGraphic" in2="effect1_backgroundBlur_147_3905" result="shape"/>
</filter>
<filter id="filter21_d_147_3905" x="131.9" y="103.921" width="42.387" height="30.5233" filterUnits="userSpaceOnUse" color-interpolation-filters="sRGB">
<feFlood flood-opacity="0" result="BackgroundImageFix"/>
<feColorMatrix in="SourceAlpha" type="matrix" values="0 0 0 0 0 0 0 0 0 0 0 0 0 0 0 0 0 0 127 0" result="hardAlpha"/>
<feOffset dy="4.7932"/>
<feGaussianBlur stdDeviation="2.63607"/>
<feComposite in2="hardAlpha" operator="out"/>
<feColorMatrix type="matrix" values="0 0 0 0 0.556863 0 0 0 0 0.943529 0 0 0 0 0.956863 0 0 0 1 0"/>
<feBlend mode="normal" in2="BackgroundImageFix" result="effect1_dropShadow_147_3905"/>
<feBlend mode="normal" in="SourceGraphic" in2="effect1_dropShadow_147_3905" result="shape"/>
</filter>
<filter id="filter22_b_147_3905" x="134.927" y="103.813" width="36.3333" height="22.8114" filterUnits="userSpaceOnUse" color-interpolation-filters="sRGB">
<feFlood flood-opacity="0" result="BackgroundImageFix"/>
<feGaussianBlur in="BackgroundImageFix" stdDeviation="1.12264"/>
<feComposite in2="SourceAlpha" operator="in" result="effect1_backgroundBlur_147_3905"/>
<feBlend mode="normal" in="SourceGraphic" in2="effect1_backgroundBlur_147_3905" result="shape"/>
</filter>
<filter id="filter23_b_147_3905" x="134.991" y="102.154" width="36.223" height="22.8114" filterUnits="userSpaceOnUse" color-interpolation-filters="sRGB">
<feFlood flood-opacity="0" result="BackgroundImageFix"/>
<feGaussianBlur in="BackgroundImageFix" stdDeviation="1.12264"/>
<feComposite in2="SourceAlpha" operator="in" result="effect1_backgroundBlur_147_3905"/>
<feBlend mode="normal" in="SourceGraphic" in2="effect1_backgroundBlur_147_3905" result="shape"/>
</filter>
<filter id="filter24_b_147_3905" x="154.842" y="92.1898" width="36.3333" height="22.8114" filterUnits="userSpaceOnUse" color-interpolation-filters="sRGB">
<feFlood flood-opacity="0" result="BackgroundImageFix"/>
<feGaussianBlur in="BackgroundImageFix" stdDeviation="1.12264"/>
<feComposite in2="SourceAlpha" operator="in" result="effect1_backgroundBlur_147_3905"/>
<feBlend mode="normal" in="SourceGraphic" in2="effect1_backgroundBlur_147_3905" result="shape"/>
</filter>
<filter id="filter25_b_147_3905" x="154.906" y="90.5321" width="36.223" height="22.8114" filterUnits="userSpaceOnUse" color-interpolation-filters="sRGB">
<feFlood flood-opacity="0" result="BackgroundImageFix"/>
<feGaussianBlur in="BackgroundImageFix" stdDeviation="1.12264"/>
<feComposite in2="SourceAlpha" operator="in" result="effect1_backgroundBlur_147_3905"/>
<feBlend mode="normal" in="SourceGraphic" in2="effect1_backgroundBlur_147_3905" result="shape"/>
</filter>
<filter id="filter26_i_147_3905" x="167.957" y="98.5737" width="10.209" height="6.16419" filterUnits="userSpaceOnUse" color-interpolation-filters="sRGB">
<feFlood flood-opacity="0" result="BackgroundImageFix"/>
<feBlend mode="normal" in="SourceGraphic" in2="BackgroundImageFix" result="shape"/>
<feColorMatrix in="SourceAlpha" type="matrix" values="0 0 0 0 0 0 0 0 0 0 0 0 0 0 0 0 0 0 127 0" result="hardAlpha"/>
<feOffset dy="0.615536"/>
<feGaussianBlur stdDeviation="0.132389"/>
<feComposite in2="hardAlpha" operator="arithmetic" k2="-1" k3="1"/>
<feColorMatrix type="matrix" values="0 0 0 0 1 0 0 0 0 1 0 0 0 0 1 0 0 0 1 0"/>
<feBlend mode="normal" in2="shape" result="effect1_innerShadow_147_3905"/>
</filter>
<filter id="filter27_i_147_3905" x="143.229" y="84.189" width="17.689" height="10.4767" filterUnits="userSpaceOnUse" color-interpolation-filters="sRGB">
<feFlood flood-opacity="0" result="BackgroundImageFix"/>
<feBlend mode="normal" in="SourceGraphic" in2="BackgroundImageFix" result="shape"/>
<feColorMatrix in="SourceAlpha" type="matrix" values="0 0 0 0 0 0 0 0 0 0 0 0 0 0 0 0 0 0 127 0" result="hardAlpha"/>
<feOffset dy="0.615536"/>
<feGaussianBlur stdDeviation="0.132389"/>
<feComposite in2="hardAlpha" operator="arithmetic" k2="-1" k3="1"/>
<feColorMatrix type="matrix" values="0 0 0 0 1 0 0 0 0 1 0 0 0 0 1 0 0 0 1 0"/>
<feBlend mode="normal" in2="shape" result="effect1_innerShadow_147_3905"/>
</filter>
<filter id="filter28_i_147_3905" x="148.682" y="109.426" width="10.1895" height="6.14735" filterUnits="userSpaceOnUse" color-interpolation-filters="sRGB">
<feFlood flood-opacity="0" result="BackgroundImageFix"/>
<feBlend mode="normal" in="SourceGraphic" in2="BackgroundImageFix" result="shape"/>
<feColorMatrix in="SourceAlpha" type="matrix" values="0 0 0 0 0 0 0 0 0 0 0 0 0 0 0 0 0 0 127 0" result="hardAlpha"/>
<feOffset dy="0.615536"/>
<feGaussianBlur stdDeviation="0.132389"/>
<feComposite in2="hardAlpha" operator="arithmetic" k2="-1" k3="1"/>
<feColorMatrix type="matrix" values="0 0 0 0 1 0 0 0 0 1 0 0 0 0 1 0 0 0 1 0"/>
<feBlend mode="normal" in2="shape" result="effect1_innerShadow_147_3905"/>
</filter>
<filter id="filter29_d_147_3905" x="88.9495" y="103.927" width="42.387" height="30.5228" filterUnits="userSpaceOnUse" color-interpolation-filters="sRGB">
<feFlood flood-opacity="0" result="BackgroundImageFix"/>
<feColorMatrix in="SourceAlpha" type="matrix" values="0 0 0 0 0 0 0 0 0 0 0 0 0 0 0 0 0 0 127 0" result="hardAlpha"/>
<feOffset dy="4.7932"/>
<feGaussianBlur stdDeviation="2.63607"/>
<feComposite in2="hardAlpha" operator="out"/>
<feColorMatrix type="matrix" values="0 0 0 0 0.392188 0 0 0 0 0.892739 0 0 0 0 1 0 0 0 0.4 0"/>
<feBlend mode="normal" in2="BackgroundImageFix" result="effect1_dropShadow_147_3905"/>
<feBlend mode="normal" in="SourceGraphic" in2="effect1_dropShadow_147_3905" result="shape"/>
</filter>
<filter id="filter30_b_147_3905" x="91.9764" y="103.818" width="36.3333" height="22.8114" filterUnits="userSpaceOnUse" color-interpolation-filters="sRGB">
<feFlood flood-opacity="0" result="BackgroundImageFix"/>
<feGaussianBlur in="BackgroundImageFix" stdDeviation="1.12264"/>
<feComposite in2="SourceAlpha" operator="in" result="effect1_backgroundBlur_147_3905"/>
<feBlend mode="normal" in="SourceGraphic" in2="effect1_backgroundBlur_147_3905" result="shape"/>
</filter>
<filter id="filter31_b_147_3905" x="92.0408" y="102.16" width="36.223" height="22.8114" filterUnits="userSpaceOnUse" color-interpolation-filters="sRGB">
<feFlood flood-opacity="0" result="BackgroundImageFix"/>
<feGaussianBlur in="BackgroundImageFix" stdDeviation="1.12264"/>
<feComposite in2="SourceAlpha" operator="in" result="effect1_backgroundBlur_147_3905"/>
<feBlend mode="normal" in="SourceGraphic" in2="effect1_backgroundBlur_147_3905" result="shape"/>
</filter>
<filter id="filter32_d_147_3905" x="109.879" y="116.137" width="42.387" height="30.523" filterUnits="userSpaceOnUse" color-interpolation-filters="sRGB">
<feFlood flood-opacity="0" result="BackgroundImageFix"/>
<feColorMatrix in="SourceAlpha" type="matrix" values="0 0 0 0 0 0 0 0 0 0 0 0 0 0 0 0 0 0 127 0" result="hardAlpha"/>
<feOffset dy="4.7932"/>
<feGaussianBlur stdDeviation="2.63607"/>
<feComposite in2="hardAlpha" operator="out"/>
<feColorMatrix type="matrix" values="0 0 0 0 0.578532 0 0 0 0 1 0 0 0 0 0.915706 0 0 0 0.64 0"/>
<feBlend mode="normal" in2="BackgroundImageFix" result="effect1_dropShadow_147_3905"/>
<feBlend mode="normal" in="SourceGraphic" in2="effect1_dropShadow_147_3905" result="shape"/>
</filter>
<filter id="filter33_b_147_3905" x="112.906" y="116.029" width="36.3333" height="22.8114" filterUnits="userSpaceOnUse" color-interpolation-filters="sRGB">
<feFlood flood-opacity="0" result="BackgroundImageFix"/>
<feGaussianBlur in="BackgroundImageFix" stdDeviation="1.12264"/>
<feComposite in2="SourceAlpha" operator="in" result="effect1_backgroundBlur_147_3905"/>
<feBlend mode="normal" in="SourceGraphic" in2="effect1_backgroundBlur_147_3905" result="shape"/>
</filter>
<filter id="filter34_b_147_3905" x="112.97" y="114.371" width="36.223" height="22.8114" filterUnits="userSpaceOnUse" color-interpolation-filters="sRGB">
<feFlood flood-opacity="0" result="BackgroundImageFix"/>
<feGaussianBlur in="BackgroundImageFix" stdDeviation="1.12264"/>
<feComposite in2="SourceAlpha" operator="in" result="effect1_backgroundBlur_147_3905"/>
<feBlend mode="normal" in="SourceGraphic" in2="effect1_backgroundBlur_147_3905" result="shape"/>
</filter>
<linearGradient id="paint0_linear_147_3905" x1="136.081" y1="15.7181" x2="137.272" y2="240.905" gradientUnits="userSpaceOnUse">
<stop stop-color="#ECFDFF" stop-opacity="0.38"/>
<stop offset="1" stop-color="#4EC4E2"/>
</linearGradient>
<linearGradient id="paint1_linear_147_3905" x1="119.508" y1="99.1492" x2="133.981" y2="133.59" gradientUnits="userSpaceOnUse">
<stop stop-color="white"/>
<stop offset="1" stop-color="#8EE2F4"/>
</linearGradient>
<linearGradient id="paint2_linear_147_3905" x1="241.075" y1="73.247" x2="176.638" y2="74.5723" gradientUnits="userSpaceOnUse">
<stop stop-color="white"/>
<stop offset="1" stop-color="#8EE2F4"/>
</linearGradient>
<linearGradient id="paint3_linear_147_3905" x1="201.753" y1="33.9824" x2="209.876" y2="34.0581" gradientUnits="userSpaceOnUse">
<stop stop-color="#90E3F5"/>
<stop offset="1" stop-color="#65C8DE"/>
</linearGradient>
<linearGradient id="paint4_linear_147_3905" x1="106.081" y1="21.4315" x2="110.556" y2="25.4793" gradientUnits="userSpaceOnUse">
<stop stop-color="#90E3F5"/>
<stop offset="1" stop-color="#65C8DE"/>
</linearGradient>
<linearGradient id="paint5_linear_147_3905" x1="46.539" y1="109.952" x2="70.4845" y2="110.083" gradientUnits="userSpaceOnUse">
<stop stop-color="#90E3F5"/>
<stop offset="1" stop-color="#65C8DE"/>
</linearGradient>
<linearGradient id="paint6_linear_147_3905" x1="172.219" y1="158.297" x2="196.164" y2="158.428" gradientUnits="userSpaceOnUse">
<stop stop-color="#90E3F5"/>
<stop offset="1" stop-color="#65C8DE"/>
</linearGradient>
<linearGradient id="paint7_linear_147_3905" x1="70.3335" y1="68.8753" x2="79.0271" y2="68.9229" gradientUnits="userSpaceOnUse">
<stop stop-color="#90E3F5"/>
<stop offset="1" stop-color="#65C8DE"/>
</linearGradient>
<linearGradient id="paint8_linear_147_3905" x1="62.3095" y1="153.89" x2="70.6565" y2="147.11" gradientUnits="userSpaceOnUse">
<stop stop-color="#90E3F5"/>
<stop offset="1" stop-color="#65C8DE"/>
</linearGradient>
<linearGradient id="paint9_linear_147_3905" x1="189.589" y1="126.81" x2="197.725" y2="133.949" gradientUnits="userSpaceOnUse">
<stop stop-color="#90E3F5"/>
<stop offset="1" stop-color="#65C8DE"/>
</linearGradient>
<linearGradient id="paint10_linear_147_3905" x1="173.369" y1="63.711" x2="180.353" y2="63.7492" gradientUnits="userSpaceOnUse">
<stop stop-color="#90E3F5"/>
<stop offset="1" stop-color="#65C8DE"/>
</linearGradient>
<linearGradient id="paint11_linear_147_3905" x1="125.938" y1="163.916" x2="144.647" y2="164.242" gradientUnits="userSpaceOnUse">
<stop stop-color="white"/>
<stop offset="1" stop-color="#BCF3FF"/>
</linearGradient>
<linearGradient id="paint12_linear_147_3905" x1="16.0362" y1="54.0999" x2="14.5364" y2="25.7599" gradientUnits="userSpaceOnUse">
<stop stop-color="#8ECDF4"/>
<stop offset="1" stop-color="#ADF5FF"/>
</linearGradient>
<linearGradient id="paint13_linear_147_3905" x1="7.40937" y1="26.2913" x2="35.1951" y2="60.7681" gradientUnits="userSpaceOnUse">
<stop stop-color="white" stop-opacity="0.43"/>
<stop offset="0.846595" stop-color="white" stop-opacity="0.44"/>
<stop offset="1" stop-color="white" stop-opacity="0"/>
</linearGradient>
<linearGradient id="paint14_linear_147_3905" x1="9.37108" y1="29.3668" x2="39.8914" y2="62.8183" gradientUnits="userSpaceOnUse">
<stop stop-color="white" stop-opacity="0.09"/>
<stop offset="0.846595" stop-color="white" stop-opacity="0.79"/>
<stop offset="1" stop-color="white" stop-opacity="0.17"/>
</linearGradient>
<linearGradient id="paint15_linear_147_3905" x1="1.06952" y1="9.03496" x2="7.6495" y2="11.7103" gradientUnits="userSpaceOnUse">
<stop stop-color="#C2E9FF" stop-opacity="0.09"/>
<stop offset="0.846595" stop-color="#AFD7FF" stop-opacity="0.79"/>
<stop offset="1" stop-color="#79EFFF" stop-opacity="0.17"/>
</linearGradient>
<linearGradient id="paint16_linear_147_3905" x1="1.06952" y1="9.03496" x2="7.6495" y2="11.7103" gradientUnits="userSpaceOnUse">
<stop stop-color="#C2E9FF" stop-opacity="0.09"/>
<stop offset="0.846595" stop-color="#AFD7FF" stop-opacity="0.79"/>
<stop offset="1" stop-color="#79EFFF" stop-opacity="0.17"/>
</linearGradient>
<linearGradient id="paint17_linear_147_3905" x1="2.4892" y1="9.03496" x2="11.9042" y2="17.9444" gradientUnits="userSpaceOnUse">
<stop stop-color="white" stop-opacity="0.09"/>
<stop offset="0.846595" stop-color="white" stop-opacity="0.79"/>
<stop offset="1" stop-color="white" stop-opacity="0.17"/>
</linearGradient>
<linearGradient id="paint18_linear_147_3905" x1="2.4892" y1="9.03496" x2="11.9042" y2="17.9444" gradientUnits="userSpaceOnUse">
<stop stop-color="white" stop-opacity="0.09"/>
<stop offset="0.846595" stop-color="white" stop-opacity="0.79"/>
<stop offset="1" stop-color="white" stop-opacity="0.17"/>
</linearGradient>
<linearGradient id="paint19_linear_147_3905" x1="2.4892" y1="9.03496" x2="11.9042" y2="17.9444" gradientUnits="userSpaceOnUse">
<stop stop-color="white" stop-opacity="0.09"/>
<stop offset="0.846595" stop-color="white" stop-opacity="0.79"/>
<stop offset="1" stop-color="white" stop-opacity="0.17"/>
</linearGradient>
<linearGradient id="paint20_linear_147_3905" x1="2.4892" y1="9.03496" x2="11.9042" y2="17.9444" gradientUnits="userSpaceOnUse">
<stop stop-color="white" stop-opacity="0.09"/>
<stop offset="0.846595" stop-color="white" stop-opacity="0.79"/>
<stop offset="1" stop-color="white" stop-opacity="0.17"/>
</linearGradient>
<linearGradient id="paint21_linear_147_3905" x1="2.4892" y1="9.03496" x2="11.9042" y2="17.9444" gradientUnits="userSpaceOnUse">
<stop stop-color="white" stop-opacity="0.09"/>
<stop offset="0.846595" stop-color="white" stop-opacity="0.79"/>
<stop offset="1" stop-color="white" stop-opacity="0.17"/>
</linearGradient>
<linearGradient id="paint22_linear_147_3905" x1="2.4892" y1="9.03496" x2="11.9042" y2="17.9444" gradientUnits="userSpaceOnUse">
<stop stop-color="white" stop-opacity="0.09"/>
<stop offset="0.846595" stop-color="white" stop-opacity="0.79"/>
<stop offset="1" stop-color="white" stop-opacity="0.17"/>
</linearGradient>
<clipPath id="clip0_147_3905">
<rect width="260" height="293" rx="20" fill="white"/>
</clipPath>
</defs>
</svg>
